<svg width="24" height="24" viewBox="0 0 24 24" fill="none" xmlns="http://www.w3.org/2000/svg">
<g clip-path="url(#clip0_3599_2016)">
<path d="M11.8707 0.387207C8.71926 0.387207 8.32297 0.401723 7.08475 0.456884C5.84652 0.514949 5.00313 0.709465 4.26426 0.996884C3.48924 1.2884 2.78724 1.74566 2.20733 2.33672C1.61663 2.91693 1.15942 3.61885 0.86749 4.39366C0.580071 5.13108 0.384103 5.97592 0.32749 7.20979C0.272329 8.45092 0.257812 8.84576 0.257812 12.0016C0.257812 15.1545 0.272329 15.5493 0.32749 16.7875C0.385554 18.0243 0.580071 18.8677 0.86749 19.6066C1.16507 20.3701 1.56136 21.0175 2.20733 21.6635C2.85184 22.3095 3.49926 22.7072 4.26281 23.0033C5.00313 23.2908 5.84507 23.4867 7.08184 23.5433C8.32152 23.5985 8.71636 23.613 11.8707 23.613C15.0251 23.613 15.4185 23.5985 16.6581 23.5433C17.8935 23.4853 18.7397 23.2908 19.4786 23.0033C20.2531 22.7117 20.9546 22.2544 21.5341 21.6635C22.1801 21.0175 22.5764 20.3701 22.8739 19.6066C23.1599 18.8677 23.3559 18.0243 23.4139 16.7875C23.4691 15.5493 23.4836 15.1545 23.4836 12.0001C23.4836 8.84575 23.4691 8.45092 23.4139 7.21124C23.3559 5.97592 23.1599 5.13108 22.8739 4.39366C22.5821 3.61882 22.1248 2.9169 21.5341 2.33672C20.9544 1.74545 20.2523 1.28814 19.4772 0.996884C18.7368 0.709465 17.892 0.513497 16.6567 0.456884C15.417 0.401723 15.0236 0.387207 11.8678 0.387207H11.8722H11.8707ZM10.8299 2.48043H11.8722C14.9728 2.48043 15.3401 2.49059 16.5638 2.54721C17.696 2.59801 18.3115 2.78817 18.7209 2.9464C19.2623 3.15688 19.6499 3.40946 20.0564 3.81592C20.4628 4.22237 20.7139 4.6085 20.9244 5.1514C21.0841 5.5593 21.2728 6.17479 21.3236 7.30705C21.3802 8.53076 21.3918 8.89801 21.3918 11.9972C21.3918 15.0964 21.3802 15.4651 21.3236 16.6888C21.2728 17.8211 21.0827 18.4351 20.9244 18.8445C20.7382 19.3487 20.4411 19.8046 20.0549 20.1785C19.6485 20.5849 19.2623 20.8361 18.7194 21.0466C18.313 21.2062 17.6975 21.3949 16.5638 21.4472C15.3401 21.5024 14.9728 21.5154 11.8722 21.5154C8.77152 21.5154 8.40281 21.5024 7.1791 21.4472C6.04684 21.3949 5.43281 21.2062 5.02346 21.0466C4.51902 20.8606 4.06267 20.564 3.68797 20.1785C3.30148 19.804 3.00386 19.3477 2.81701 18.843C2.65878 18.4351 2.46862 17.8196 2.41781 16.6874C2.36265 15.4637 2.35104 15.0964 2.35104 11.9943C2.35104 8.89366 2.36265 8.52785 2.41781 7.30414C2.47007 6.17188 2.65878 5.5564 2.81846 5.14705C3.02894 4.60559 3.28152 4.21801 3.68797 3.81156C4.09443 3.40511 4.48055 3.15398 5.02346 2.9435C5.43281 2.78382 6.04684 2.59511 7.1791 2.54285C8.25039 2.4935 8.66555 2.47898 10.8299 2.47753V2.48043ZM18.0706 4.40817C17.8876 4.40817 17.7063 4.44422 17.5373 4.51425C17.3682 4.58428 17.2146 4.68693 17.0852 4.81634C16.9558 4.94574 16.8531 5.09936 16.7831 5.26844C16.713 5.43751 16.677 5.61872 16.677 5.80172C16.677 5.98473 16.713 6.16594 16.7831 6.33501C16.8531 6.50408 16.9558 6.65771 17.0852 6.78711C17.2146 6.91651 17.3682 7.01916 17.5373 7.08919C17.7063 7.15923 17.8876 7.19527 18.0706 7.19527C18.4401 7.19527 18.7946 7.04845 19.0559 6.78711C19.3173 6.52577 19.4641 6.17131 19.4641 5.80172C19.4641 5.43213 19.3173 5.07768 19.0559 4.81634C18.7946 4.55499 18.4401 4.40817 18.0706 4.40817ZM11.8722 6.03688C11.0811 6.02454 10.2956 6.16969 9.56117 6.46386C8.82677 6.75804 8.15824 7.19537 7.59448 7.7504C7.03073 8.30543 6.58302 8.96706 6.27742 9.69678C5.97182 10.4265 5.81444 11.2097 5.81444 12.0008C5.81444 12.792 5.97182 13.5752 6.27742 14.3049C6.58302 15.0346 7.03073 15.6962 7.59448 16.2513C8.15824 16.8063 8.82677 17.2436 9.56117 17.5378C10.2956 17.832 11.0811 17.9771 11.8722 17.9648C13.4378 17.9404 14.931 17.3013 16.0296 16.1855C17.1281 15.0697 17.7438 13.5666 17.7438 12.0008C17.7438 10.435 17.1281 8.932 16.0296 7.8162C14.931 6.7004 13.4378 6.06131 11.8722 6.03688ZM11.8722 8.12866C12.8989 8.12866 13.8837 8.53654 14.6097 9.26258C15.3357 9.98862 15.7436 10.9733 15.7436 12.0001C15.7436 13.0269 15.3357 14.0116 14.6097 14.7376C13.8837 15.4637 12.8989 15.8716 11.8722 15.8716C10.8454 15.8716 9.86068 15.4637 9.13464 14.7376C8.4086 14.0116 8.00072 13.0269 8.00072 12.0001C8.00072 10.9733 8.4086 9.98862 9.13464 9.26258C9.86068 8.53654 10.8454 8.12866 11.8722 8.12866Z" fill="white"/>
</g>
<defs>
<clipPath id="clip0_3599_2016">
<rect width="23.2258" height="23.2258" fill="white" transform="translate(0.257812 0.387207)"/>
</clipPath>
</defs>
</svg>
