<svg width="24" height="24" viewBox="0 0 24 24" fill="none" xmlns="http://www.w3.org/2000/svg">
<g clip-path="url(#clip0_3599_1348)">
<path d="M11.972 0.387197C10.7366 0.329255 9.50267 0.529898 8.34928 0.97628C7.1959 1.42266 6.14842 2.10495 5.2739 2.97947C4.39938 3.85398 3.7171 4.90146 3.27071 6.05485C2.82433 7.20824 2.62369 8.44212 2.68163 9.67752C2.68163 12.604 5.00421 15.484 6.1655 16.6453C7.32679 17.8066 11.972 23.613 11.972 23.613C11.972 23.613 16.6171 17.8066 17.7784 16.6453C18.9397 15.484 21.2623 12.604 21.2623 9.67752C21.3202 8.44212 21.1196 7.20824 20.6732 6.05485C20.2268 4.90146 19.5445 3.85398 18.67 2.97947C17.7955 2.10495 16.748 1.42266 15.5946 0.97628C14.4412 0.529898 13.2073 0.329255 11.972 0.387197ZM11.972 13.4517C11.2255 13.4517 10.4958 13.2304 9.87512 12.8156C9.25446 12.4009 8.77071 11.8115 8.48505 11.1218C8.19939 10.4322 8.12465 9.67333 8.27028 8.94121C8.41591 8.20909 8.77536 7.53659 9.30319 7.00876C9.83102 6.48093 10.5035 6.12147 11.2356 5.97585C11.9678 5.83022 12.7266 5.90496 13.4163 6.19062C14.1059 6.47628 14.6954 6.96003 15.1101 7.58069C15.5248 8.20135 15.7461 8.93105 15.7461 9.67752C15.7461 10.1732 15.6485 10.6639 15.4589 11.1218C15.2692 11.5797 14.9912 11.9958 14.6407 12.3463C14.2902 12.6967 13.8742 12.9747 13.4163 13.1644C12.9584 13.3541 12.4676 13.4517 11.972 13.4517Z" fill="white"/>
</g>
<defs>
<clipPath id="clip0_3599_1348">
<rect width="23.2258" height="23.2258" fill="white" transform="translate(0.355469 0.387207)"/>
</clipPath>
</defs>
</svg>
