<svg width="24" height="24" viewBox="0 0 24 24" fill="none" xmlns="http://www.w3.org/2000/svg">
<g clip-path="url(#clip0_3599_849)">
<path d="M20.903 0.387207C21.5874 0.387207 22.2438 0.659096 22.7278 1.14306C23.2117 1.62703 23.4836 2.28342 23.4836 2.96785V21.0324C23.4836 21.7168 23.2117 22.3732 22.7278 22.8572C22.2438 23.3411 21.5874 23.613 20.903 23.613H2.83846C2.15403 23.613 1.49763 23.3411 1.01367 22.8572C0.529701 22.3732 0.257813 21.7168 0.257812 21.0324V2.96785C0.257812 2.28342 0.529701 1.62703 1.01367 1.14306C1.49763 0.659096 2.15403 0.387207 2.83846 0.387207H20.903ZM20.2578 20.3872V13.5485C20.2578 12.4329 19.8146 11.3629 19.0258 10.5741C18.2369 9.78522 17.167 9.34204 16.0514 9.34204C14.9546 9.34204 13.6772 10.013 13.0578 11.0195V9.58721H9.45781V20.3872H13.0578V14.0259C13.0578 13.0324 13.8578 12.2195 14.8514 12.2195C15.3305 12.2195 15.7899 12.4098 16.1287 12.7486C16.4675 13.0873 16.6578 13.5468 16.6578 14.0259V20.3872H20.2578ZM5.26426 7.5614C5.83919 7.5614 6.39056 7.33301 6.79709 6.92648C7.20362 6.51995 7.43201 5.96858 7.43201 5.39366C7.43201 4.19366 6.46426 3.21301 5.26426 3.21301C4.68592 3.21301 4.13127 3.44276 3.72231 3.85171C3.31336 4.26066 3.08362 4.81532 3.08362 5.39366C3.08362 6.59366 4.06426 7.5614 5.26426 7.5614ZM7.05781 20.3872V9.58721H3.48362V20.3872H7.05781Z" fill="white"/>
</g>
<defs>
<clipPath id="clip0_3599_849">
<rect width="23.2258" height="23.2258" fill="white" transform="translate(0.257812 0.387207)"/>
</clipPath>
</defs>
</svg>
