<svg width="221" height="32" viewBox="0 0 221 32" fill="none" xmlns="http://www.w3.org/2000/svg">
<g clip-path="url(#clip0_2434_2452)">
<path fill-rule="evenodd" clip-rule="evenodd" d="M7.9567 27.6944C9.8672 27.9415 12.4626 27.9498 16.4719 27.9498C20.481 27.9498 23.0765 27.9415 24.987 27.6944C26.7847 27.462 27.3355 27.0866 27.6343 26.7969C27.9331 26.5072 28.3201 25.9731 28.5598 24.2299C28.8145 22.3772 28.8232 19.8604 28.8232 15.9728C28.8232 12.085 28.8145 9.56819 28.5598 7.71558C28.3201 5.97235 27.9331 5.43827 27.6343 5.14854C27.3355 4.85882 26.7847 4.48342 24.987 4.25101C23.0765 4.004 20.481 3.99565 16.4719 3.99565C12.4626 3.99565 9.8672 4.004 7.9567 4.25101C6.15898 4.48342 5.60819 4.85882 5.30941 5.14854C5.01066 5.43827 4.62352 5.97235 4.38384 7.71558C4.12912 9.56819 4.12051 12.085 4.12051 15.9728C4.12051 19.8604 4.12912 22.3772 4.38384 24.2299C4.62352 25.9731 5.01066 26.5072 5.30941 26.7969C5.60819 27.0866 6.15898 27.462 7.9567 27.6944ZM2.39577 2.32317C0 4.64637 0 8.42182 0 15.9728C0 23.5237 0 27.2991 2.39577 29.6223C4.79155 31.9454 8.68499 31.9454 16.4719 31.9454C24.2588 31.9454 28.1521 31.9454 30.548 29.6223C32.9437 27.2991 32.9437 23.5237 32.9437 15.9728C32.9437 8.42182 32.9437 4.64637 30.548 2.32317C28.1521 0 24.2588 0 16.4719 0C8.68499 0 4.79155 0 2.39577 2.32317ZM12.2635 22.8137C10.1238 22.0631 8.68461 20.9158 7.67981 19.8574L10.7112 17.1512C11.3704 17.8455 12.2764 18.5691 13.6654 19.0564C15.034 19.5364 17.0309 19.6435 18.5889 19.2622C20.1229 18.8868 21.4829 17.9905 22.2144 17.1845L25.3077 19.8241C24.0388 21.2224 21.9577 22.5588 19.5972 23.1364C17.2608 23.7082 14.4237 23.5716 12.2635 22.8137ZM57.8589 0.00162794C60.1597 0.00162794 62.2214 0.494166 64.0438 1.47926C65.8666 2.46435 67.2858 3.84058 68.3014 5.60794C69.3472 7.37533 69.8701 9.41792 69.8701 11.7358C69.8701 14.0536 69.3472 16.1107 68.3014 17.907C67.2858 19.6745 65.8666 21.0507 64.0438 22.0357C62.2214 23.0208 60.1597 23.5134 57.8589 23.5134C56.1558 23.5134 54.5872 23.1947 53.153 22.5573C51.7488 21.9199 50.5536 20.9928 49.5677 19.7759V31.9471H45.2653V0.00162794H49.3885V3.86957C50.3446 2.59473 51.5546 1.63862 53.0186 1.00121C54.4829 0.334822 56.0963 0.00162794 57.8589 0.00162794ZM57.5005 19.8628C59.0243 19.8628 60.3837 19.5296 61.5789 18.8632C62.8038 18.1679 63.76 17.2117 64.4474 15.9948C65.1645 14.749 65.5229 13.3293 65.5229 11.7358C65.5229 10.1423 65.1645 8.73706 64.4474 7.52019C63.76 6.27434 62.8038 5.31821 61.5789 4.65184C60.3837 3.98544 59.0243 3.65226 57.5005 3.65226C56.0064 3.65226 54.647 3.99994 53.4221 4.6953C52.2269 5.36166 51.2707 6.3033 50.5536 7.52019C49.8666 8.73706 49.5229 10.1423 49.5229 11.7358C49.5229 13.3293 49.8666 14.749 50.5536 15.9948C51.241 17.2117 52.1971 18.1679 53.4221 18.8632C54.647 19.5296 56.0064 19.8628 57.5005 19.8628ZM96.5379 0.00162794V23.2526H92.4147V19.602C91.4586 20.8768 90.2483 21.8474 88.7843 22.5138C87.3203 23.1802 85.7069 23.5134 83.944 23.5134C81.6435 23.5134 79.5818 23.0208 77.759 22.0357C75.9366 21.0507 74.5024 19.6745 73.4566 17.907C72.441 16.1107 71.9328 14.0536 71.9328 11.7358C71.9328 9.41792 72.441 7.37533 73.4566 5.60794C74.5024 3.84058 75.9366 2.46435 77.759 1.47926C79.5818 0.494166 81.6435 0.00162794 83.944 0.00162794C85.647 0.00162794 87.2157 0.320333 88.6499 0.957747C90.0842 1.56618 91.2794 2.47884 92.2355 3.69571V0.00162794H96.5379ZM84.3027 19.8628C85.7965 19.8628 87.1558 19.5296 88.3811 18.8632C89.6061 18.1679 90.5622 17.2117 91.2493 15.9948C91.9366 14.749 92.28 13.3293 92.28 11.7358C92.28 10.1423 91.9366 8.73706 91.2493 7.52019C90.5622 6.27434 89.6061 5.31821 88.3811 4.65184C87.1558 3.98544 85.7965 3.65226 84.3027 3.65226C82.7789 3.65226 81.4045 3.98544 80.1795 4.65184C78.9843 5.31821 78.0282 6.27434 77.311 7.52019C76.6237 8.73706 76.2803 10.1423 76.2803 11.7358C76.2803 13.3293 76.6237 14.749 77.311 15.9948C78.0282 17.2117 78.9843 18.1679 80.1795 18.8632C81.4045 19.5296 82.7789 19.8628 84.3027 19.8628ZM123.006 20.1236V0.00162794H118.704V10.9101C118.704 13.3438 118.047 15.227 116.732 16.5599C115.417 17.8926 113.625 18.559 111.354 18.559C109.292 18.559 107.708 17.994 106.604 16.8641C105.498 15.7051 104.945 14.0247 104.945 11.8227V0.00162794H100.643V12.3007C100.643 15.6037 101.554 18.0954 103.377 19.7759C105.199 21.4563 107.694 22.2966 110.861 22.2966C112.475 22.2966 113.969 22.0068 115.343 21.4274C116.718 20.8189 117.837 19.9642 118.704 18.8632V20.5581C118.704 23.1657 118.091 25.0924 116.867 26.3383C115.641 27.6131 113.73 28.2505 111.13 28.2505C109.487 28.2505 107.918 27.9898 106.424 27.4683C104.96 26.9467 103.705 26.2224 102.66 25.2952L100.553 28.5113C101.778 29.6123 103.347 30.4525 105.259 31.032C107.201 31.6404 109.233 31.9446 111.354 31.9446C115.239 31.9446 118.151 30.974 120.094 29.0328C122.036 27.1206 123.006 24.1508 123.006 20.1236ZM139.709 0.00162794C142.01 0.00162794 144.072 0.494166 145.894 1.47926C147.717 2.46435 149.136 3.84058 150.152 5.60794C151.198 7.3753 151.72 9.41792 151.72 11.7358C151.72 14.0536 151.198 16.1108 150.152 17.9071C149.136 19.6745 147.717 21.0507 145.894 22.0357C144.072 23.0209 142.01 23.5134 139.709 23.5134C138.006 23.5134 136.438 23.1947 135.003 22.5573C133.599 21.9199 132.404 20.9927 131.418 19.7759V31.9471H127.116V0.00162794H131.239V3.86957C132.195 2.59473 133.405 1.63862 134.869 1.00121C136.333 0.334819 137.947 0.00162794 139.709 0.00162794ZM139.351 19.8628C140.875 19.8628 142.234 19.5296 143.429 18.8632C144.654 18.1678 145.61 17.2117 146.297 15.9948C147.015 14.749 147.374 13.3294 147.374 11.7358C147.374 10.1423 147.015 8.73706 146.297 7.52019C145.61 6.27434 144.654 5.31821 143.429 4.65184C142.234 3.98544 140.875 3.65226 139.351 3.65226C137.857 3.65226 136.497 3.99994 135.273 4.6953C134.077 5.36166 133.121 6.3033 132.404 7.52019C131.717 8.73706 131.374 10.1423 131.374 11.7358C131.374 13.3294 131.717 14.749 132.404 15.9948C133.092 17.2117 134.048 18.1678 135.273 18.8632C136.497 19.5296 137.857 19.8628 139.351 19.8628ZM173.593 1.47926C171.772 0.494166 169.71 0.00162794 167.409 0.00162794C165.646 0.00162794 164.032 0.334819 162.569 1.00121C161.105 1.63862 159.894 2.59473 158.938 3.86957V0.00162794H154.815V31.9471H159.118V19.7759C160.103 20.9927 161.299 21.9199 162.703 22.5573C164.137 23.1947 165.706 23.5134 167.409 23.5134C169.71 23.5134 171.772 23.0209 173.593 22.0357C175.416 21.0507 176.835 19.6745 177.851 17.9071C178.897 16.1108 179.42 14.0536 179.42 11.7358C179.42 9.41792 178.897 7.3753 177.851 5.60794C176.835 3.84058 175.416 2.46435 173.593 1.47926ZM171.129 18.8632C169.934 19.5296 168.574 19.8628 167.051 19.8628C165.557 19.8628 164.197 19.5296 162.972 18.8632C161.746 18.1678 160.791 17.2117 160.103 15.9948C159.416 14.749 159.073 13.3294 159.073 11.7358C159.073 10.1423 159.416 8.73706 160.103 7.52019C160.82 6.3033 161.777 5.36166 162.972 4.6953C164.197 3.99994 165.557 3.65226 167.051 3.65226C168.574 3.65226 169.934 3.98544 171.129 4.65184C172.354 5.31821 173.31 6.27434 173.997 7.52019C174.714 8.73706 175.073 10.1423 175.073 11.7358C175.073 13.3294 174.714 14.749 173.997 15.9948C173.31 17.2117 172.354 18.1678 171.129 18.8632ZM204.867 0.00162794V20.1235C204.867 24.1508 203.896 27.1206 201.954 29.0328C200.012 30.974 197.099 31.9446 193.215 31.9446C191.092 31.9446 189.061 31.6404 187.119 31.0319C185.207 30.4524 183.639 29.6123 182.413 28.5112L184.519 25.2952C185.565 26.2224 186.82 26.9467 188.284 27.4683C189.779 27.9898 191.348 28.2505 192.99 28.2505C195.589 28.2505 197.502 27.6131 198.727 26.3383C199.952 25.0924 200.565 23.1658 200.565 20.5581V18.8632C199.698 19.9642 198.577 20.8188 197.204 21.4274C195.829 22.0068 194.335 22.2965 192.722 22.2965C189.554 22.2965 187.059 21.4564 185.237 19.7759C183.415 18.0954 182.503 15.6037 182.503 12.3007V0.00162794H186.805V11.8228C186.805 14.0247 187.358 15.7051 188.464 16.864C189.569 17.994 191.153 18.559 193.215 18.559C195.486 18.559 197.278 17.8926 198.593 16.5598C199.907 15.227 200.565 13.3438 200.565 10.9101V0.00162794H204.867ZM214.23 0.0291224H215.358L217.319 4.81766H217.391L219.352 0.0291224H220.48V6.18925H219.596V1.73158H219.539L217.722 6.18022H216.988L215.171 1.72857H215.114V6.18925H214.23V0.0291224ZM208.409 0.0290924V0.829187H210.328V6.18922H211.254V0.829187H213.176V0.0290924H208.409Z" fill="white"/>
</g>
<defs>
<clipPath id="clip0_2434_2452">
<rect width="220.48" height="32" fill="white"/>
</clipPath>
</defs>
</svg>
