<svg width="80" height="80" viewBox="0 0 80 80" fill="none" xmlns="http://www.w3.org/2000/svg">
<path d="M23.1842 72.0495L23.1834 72.0499L19.3795 73.9236L19.3791 73.9238C18.2623 74.4765 16.8403 73.5968 16.8403 72.3481V13.1251C16.8403 9.06786 20.1542 5.75002 24.211 5.75C24.2111 5.75 24.2111 5.75 24.2111 5.75L48.2912 5.75412C48.7186 5.76975 48.9502 5.96174 49.0547 6.05542L49.0628 6.06272L49.0715 6.06927C49.0797 6.07537 49.0873 6.08074 49.0933 6.08488L49.1092 6.09571C49.1127 6.0981 49.1155 6.10007 49.1179 6.10173L63.5053 20.4725C63.5748 20.546 63.6308 20.6203 63.6755 20.6993L63.68 20.7073L63.6808 20.7086L63.681 20.7089C63.6835 20.714 63.6898 20.7266 63.6987 20.7414C63.7813 20.8952 63.8274 21.0722 63.8346 21.2514L63.836 21.2869L63.8472 21.3204C63.8472 21.3204 63.8473 21.3207 63.8474 21.3212V72.3481C63.8474 73.5968 62.4295 74.4767 61.3084 73.9237L61.3082 73.9236L57.5044 72.0499L57.5035 72.0495C57.2561 71.9288 56.9709 71.9288 56.7235 72.0495L56.7226 72.0499L52.9187 73.9236L52.9182 73.9239C52.0407 74.3586 51.0097 74.3589 50.1272 73.9237L50.127 73.9236L46.3232 72.0499L46.3223 72.0495C46.0749 71.9288 45.7897 71.9288 45.5423 72.0495L45.5414 72.0499L41.7375 73.9236L41.737 73.9239C40.8595 74.3586 39.8285 74.3589 38.9459 73.9237L38.9458 73.9236L35.1433 72.0506C34.8982 71.928 34.612 71.9292 34.3654 72.0495L34.3646 72.0499L30.5607 73.9236L30.5602 73.9239C29.6826 74.3586 28.6516 74.3589 27.7691 73.9237L27.769 73.9236L23.9651 72.0499L23.9642 72.0495C23.7168 71.9288 23.4316 71.9288 23.1842 72.0495ZM24.2111 8.03225H23.9794L23.9784 8.04512C21.2547 8.16478 19.1219 10.3817 19.1219 13.1286V13.1286L19.1306 71.104L19.1307 71.5067L19.4916 71.328L22.1782 69.9978L22.1783 69.9977C23.0558 69.563 24.0868 69.5627 24.9693 69.9979L28.7729 71.8801L28.7742 71.8808C29.0216 72.0015 29.3068 72.0015 29.5542 71.8808L29.5555 71.8801L33.3594 69.9978L33.3595 69.9977C34.237 69.563 35.268 69.5627 36.1505 69.9979L39.9541 71.8801L39.9554 71.8808C40.2028 72.0015 40.488 72.0015 40.7354 71.8808L40.7367 71.8801L44.5406 69.9978L44.5407 69.9977C45.4182 69.563 46.4492 69.5627 47.3317 69.9979L51.1344 71.8797C51.3795 72.0023 51.6657 72.001 51.9123 71.8808L51.9135 71.8801L55.7174 69.9978L55.7175 69.9977C56.5951 69.563 57.6261 69.5627 58.5086 69.9979L61.2038 71.3282L61.5645 71.5061V71.104V22.6673V22.4173H61.3145H52.0813C49.38 22.4131 47.162 20.1988 47.162 17.4984V8.28225V8.03225H46.912H24.2111ZM49.8675 10.0702L49.4409 9.64439L49.4409 10.2472L49.441 17.4985C49.441 18.9708 50.6047 20.1395 52.082 20.1395H59.3506H59.9549L59.5272 19.7125L49.8675 10.0702ZM27.9204 20.348C27.2887 20.348 26.7797 19.8382 26.7793 19.212C26.7832 18.579 27.2943 18.0701 27.9204 18.0701H40.1915C40.8197 18.074 41.3291 18.5847 41.3291 19.2113C41.3291 19.8368 40.8207 20.3441 40.1915 20.348H27.9204ZM27.9204 29.8161C27.2887 29.8161 26.7797 29.3062 26.7793 28.68C26.7832 28.0519 27.2938 27.5425 27.9204 27.5425H52.7692C53.3947 27.5425 53.902 28.0509 53.906 28.68C53.9056 29.3068 53.396 29.8161 52.7692 29.8161H27.9204ZM26.7793 38.1487C26.7828 37.5202 27.2936 37.0104 27.9204 37.0104H52.7692C53.395 37.0104 53.9024 37.5192 53.906 38.1486C53.9095 38.7797 53.3998 39.2927 52.7692 39.2927H27.9204C27.2849 39.2927 26.7757 38.7792 26.7793 38.1487Z" fill="#3D3E40" stroke="white" stroke-width="0.5"/>
<g clip-path="url(#clip0_4350_8473)">
<path d="M40.622 54.1461H41.5356L41.2311 53.2846C40.8337 52.1607 39.7623 51.3539 38.5 51.3539H37C36.9724 51.3539 36.946 51.343 36.9265 51.3235C36.907 51.304 36.896 51.2776 36.896 51.25C36.896 51.2224 36.907 51.196 36.9265 51.1765C36.946 51.157 36.9724 51.1461 37 51.1461H43C43.0275 51.1461 43.0539 51.157 43.0734 51.1765C43.0929 51.196 43.1039 51.2224 43.1039 51.25C43.1039 51.2776 43.0929 51.304 43.0734 51.3235C43.0539 51.343 43.0275 51.3539 43 51.3539H41.5H40.2021L40.9844 52.3895C41.2607 52.7551 41.4511 53.1783 41.5416 53.6275L41.646 54.1461H42.175H43C43.0275 54.1461 43.0539 54.157 43.0734 54.1765C43.0929 54.196 43.1039 54.2224 43.1039 54.25C43.1039 54.2776 43.0929 54.304 43.0734 54.3235C43.0539 54.343 43.0275 54.3539 43 54.3539H42.175H41.6474L41.5419 54.8708C41.4073 55.5301 41.0621 56.1279 40.5582 56.574C40.0544 57.02 39.4192 57.2903 38.7484 57.344L37.3549 57.4555L38.3428 58.4446L40.0728 60.1766L40.081 60.1848L40.0895 60.1927C40.0997 60.2022 40.1079 60.2137 40.1136 60.2264C40.1193 60.2392 40.1223 60.2529 40.1226 60.2669C40.1228 60.2808 40.1202 60.2947 40.115 60.3076C40.1098 60.3206 40.102 60.3323 40.0921 60.3422C40.0823 60.3521 40.0705 60.3598 40.0576 60.3651C40.0446 60.3703 40.0308 60.3729 40.0168 60.3726C40.0029 60.3724 39.9891 60.3693 39.9764 60.3636C39.9636 60.3579 39.9521 60.3498 39.9426 60.3396L39.9349 60.3312L39.9268 60.3232L36.9271 57.3234C36.927 57.3234 36.927 57.3233 36.9269 57.3233C36.9125 57.3088 36.9027 57.2903 36.8987 57.2702C36.8947 57.2501 36.8967 57.2292 36.9046 57.2102C36.9125 57.1913 36.9258 57.175 36.9428 57.1636C36.9598 57.1523 36.9797 57.1462 37.0002 57.1461C37.0003 57.1461 37.0004 57.1461 37.0005 57.1461L38.4998 57.1461C38.4998 57.1461 38.4999 57.1461 38.5 57.1461C39.0989 57.1462 39.6832 56.9606 40.1723 56.6149C40.6615 56.2691 41.0314 55.7801 41.2311 55.2154L41.5357 54.3539H40.622H37C36.9724 54.3539 36.946 54.343 36.9265 54.3235C36.907 54.304 36.896 54.2776 36.896 54.25C36.896 54.2224 36.907 54.196 36.9265 54.1765C36.946 54.157 36.9724 54.1461 37 54.1461H40.622ZM40 44.6039C34.2581 44.6039 29.6039 49.2582 29.6039 55C29.6039 60.7418 34.2581 65.3961 40 65.3961C45.7418 65.3961 50.396 60.7418 50.396 55C50.396 49.2582 45.7418 44.6039 40 44.6039Z" fill="#00FF95" stroke="#3D3E40" stroke-width="1.29217"/>
</g>
<defs>
<clipPath id="clip0_4350_8473">
<rect width="24" height="24" fill="white" transform="translate(28 43)"/>
</clipPath>
</defs>
</svg>
