<svg width="80" height="80" viewBox="0 0 80 80" fill="none" xmlns="http://www.w3.org/2000/svg">
<path d="M47.0411 12.8359H32.9589C31.3168 12.8359 30 11.5036 30 9.87692C30 8.23478 31.3323 6.91797 32.9589 6.91797H47.0411C48.6832 6.91797 50 8.25027 50 9.87692C50 11.5191 48.6677 12.8359 47.0411 12.8359Z" stroke="#3D3E40" stroke-width="1.64555"/>
<path fill-rule="evenodd" clip-rule="evenodd" d="M20.0747 1.6665H60.6997C68.6379 1.6665 73.3075 5.7034 73.3075 14.4249V76.6125H72.1326V14.44C72.1326 10.5085 71.1384 7.54109 69.1651 5.62808C67.2672 3.77533 64.4203 2.84142 60.6997 2.84142H20.0747C16.4596 2.84142 13.6729 3.80545 11.79 5.71846C9.90717 7.63146 8.94313 10.4633 8.94313 14.1236V76.6125H7.78328V64.8559H7V54.5829H7.78328V52.0975H7V41.6739H7.78328V37.0044H7V31.8679H7.78328V14.1236C7.78328 6.33604 11.9859 1.6665 20.0747 1.6665Z" fill="#3D3E40"/>
<path d="M73.3075 76.6125V76.9137H73.6087V76.6125H73.3075ZM72.1326 76.6125H71.8313V76.9137H72.1326V76.6125ZM69.1651 5.62808L68.9547 5.84366L68.9554 5.84438L69.1651 5.62808ZM11.79 5.71846L12.0048 5.92979L11.79 5.71846ZM8.94313 76.6125V76.9137H9.24439V76.6125H8.94313ZM7.78328 76.6125H7.48202V76.9137H7.78328V76.6125ZM7.78328 64.8559H8.08454V64.5547H7.78328V64.8559ZM7 64.8559H6.69874V65.1572H7V64.8559ZM7 54.5829V54.2817H6.69874V54.5829H7ZM7.78328 54.5829V54.8842H8.08454V54.5829H7.78328ZM7.78328 52.0975H8.08454V51.7963H7.78328V52.0975ZM7 52.0975H6.69874V52.3988H7V52.0975ZM7 41.6739V41.3727H6.69874V41.6739H7ZM7.78328 41.6739V41.9752H8.08454V41.6739H7.78328ZM7.78328 37.0044H8.08454V36.7031H7.78328V37.0044ZM7 37.0044H6.69874V37.3056H7V37.0044ZM7 31.8679V31.5666H6.69874V31.8679H7ZM7.78328 31.8679V32.1691H8.08454V31.8679H7.78328ZM60.6997 1.36524H20.0747V1.96776H60.6997V1.36524ZM73.6087 14.4249C73.6087 10.0123 72.4267 6.73298 70.1904 4.55912C67.9557 2.38679 64.7164 1.36524 60.6997 1.36524V1.96776C64.6212 1.96776 67.6858 2.96466 69.7704 4.99115C71.8535 7.01612 73.0062 10.116 73.0062 14.4249H73.6087ZM73.6087 76.6125V14.4249H73.0062V76.6125H73.6087ZM72.1326 76.9137H73.3075V76.3112H72.1326V76.9137ZM71.8313 14.44V76.6125H72.4338V14.44H71.8313ZM68.9554 5.84438C70.8485 7.67966 71.8313 10.5539 71.8313 14.44H72.4338C72.4338 10.4631 71.4283 7.40251 69.3748 5.41178L68.9554 5.84438ZM60.6997 3.14268C64.374 3.14268 67.1326 4.06494 68.9547 5.84366L69.3756 5.41251C67.4018 3.48572 64.4665 2.54016 60.6997 2.54016V3.14268ZM20.0747 3.14268H60.6997V2.54016H20.0747V3.14268ZM12.0048 5.92979C13.8133 4.09231 16.511 3.14268 20.0747 3.14268V2.54016C16.4082 2.54016 13.5326 3.5186 11.5753 5.50713L12.0048 5.92979ZM9.24439 14.1236C9.24439 10.5136 10.1947 7.76878 12.0048 5.92979L11.5753 5.50713C9.61962 7.49415 8.64187 10.4131 8.64187 14.1236H9.24439ZM9.24439 76.6125V14.1236H8.64187V76.6125H9.24439ZM7.78328 76.9137H8.94313V76.3112H7.78328V76.9137ZM7.48202 64.8559V76.6125H8.08454V64.8559H7.48202ZM7 65.1572H7.78328V64.5547H7V65.1572ZM6.69874 54.5829V64.8559H7.30126V54.5829H6.69874ZM7.78328 54.2817H7V54.8842H7.78328V54.2817ZM7.48202 52.0975V54.5829H8.08454V52.0975H7.48202ZM7 52.3988H7.78328V51.7963H7V52.3988ZM6.69874 41.6739V52.0975H7.30126V41.6739H6.69874ZM7.78328 41.3727H7V41.9752H7.78328V41.3727ZM7.48202 37.0044V41.6739H8.08454V37.0044H7.48202ZM7 37.3056H7.78328V36.7031H7V37.3056ZM6.69874 31.8679V37.0044H7.30126V31.8679H6.69874ZM7.78328 31.5666H7V32.1691H7.78328V31.5666ZM7.48202 14.1236V31.8679H8.08454V14.1236H7.48202ZM20.0747 1.36524C15.9724 1.36524 12.812 2.55064 10.6787 4.76574C8.54721 6.97897 7.48202 10.1778 7.48202 14.1236H8.08454C8.08454 10.2818 9.12063 7.25214 11.1127 5.1837C13.1029 3.11714 16.0881 1.96776 20.0747 1.96776V1.36524Z" fill="#3D3E40"/>
<rect x="14" y="47.541" width="25.2702" height="25.2703" rx="4" fill="#EEECE9"/>
<rect x="42.2705" y="47.2705" width="25.2703" height="25.2703" rx="4" fill="#EEECE9"/>
<rect x="42.2705" y="19" width="25.2702" height="25.2703" rx="4" fill="#EEECE9"/>
<rect x="14" y="19" width="25.2703" height="25.2703" rx="5.05406" fill="#00FF95"/>
<path fill-rule="evenodd" clip-rule="evenodd" d="M26.581 36.8303C24.8772 36.8303 23.7743 36.8266 22.9624 36.7184C22.1984 36.6165 21.9643 36.452 21.8374 36.325C21.7104 36.1981 21.5459 35.964 21.444 35.2C21.3358 34.3881 21.3321 33.2851 21.3321 31.5814C21.3321 29.8776 21.3358 28.7746 21.444 27.9627C21.5459 27.1987 21.7104 26.9647 21.8374 26.8377C21.9643 26.7107 22.1984 26.5462 22.9624 26.4444C23.7743 26.3361 24.8772 26.3324 26.581 26.3324C28.2848 26.3324 29.3877 26.3361 30.1996 26.4444C30.9636 26.5462 31.1977 26.7107 31.3246 26.8377C31.4516 26.9647 31.6161 27.1987 31.718 27.9627C31.8262 28.7746 31.8299 29.8776 31.8299 31.5814C31.8299 33.2851 31.8262 34.3881 31.718 35.2C31.6161 35.964 31.4516 36.1981 31.3246 36.325C31.1977 36.452 30.9636 36.6165 30.1996 36.7184C29.3877 36.8266 28.2848 36.8303 26.581 36.8303ZM19.5811 31.5814C19.5811 28.2722 19.5811 26.6176 20.5992 25.5995C21.6173 24.5814 23.2719 24.5814 26.581 24.5814C29.8901 24.5814 31.5447 24.5814 32.5628 25.5995C33.581 26.6176 33.581 28.2722 33.581 31.5814C33.581 34.8905 33.581 36.5451 32.5628 37.5632C31.5447 38.5814 29.8901 38.5814 26.581 38.5814C23.2719 38.5814 21.6173 38.5814 20.5992 37.5632C19.5811 36.5451 19.5811 34.8905 19.5811 31.5814ZM23.1541 33.2831C23.5811 33.747 24.1927 34.2497 25.102 34.5787C26.02 34.9108 27.2257 34.9707 28.2185 34.7201C29.2216 34.467 30.1061 33.8813 30.6453 33.2685L29.3307 32.1117C29.0199 32.4649 28.442 32.8577 27.7901 33.0223C27.1279 33.1894 26.2793 33.1425 25.6977 32.9321C25.1075 32.7185 24.7224 32.4014 24.4423 32.0971L23.1541 33.2831Z" fill="#282827"/>
<rect x="52.85" y="51.85" width="26.3" height="26.3" rx="13.15" fill="#FDFBF8"/>
<rect x="52.85" y="51.85" width="26.3" height="26.3" rx="13.15" stroke="#3D3E40" stroke-width="1.7"/>
<path d="M66 58V72" stroke="#3D3E40" stroke-width="1.7" stroke-linecap="round" stroke-linejoin="round"/>
<path d="M73 65L66 72L59 65" stroke="#3D3E40" stroke-width="1.7" stroke-linecap="round" stroke-linejoin="round"/>
</svg>
