<svg width="81" height="80" viewBox="0 0 81 80" fill="none" xmlns="http://www.w3.org/2000/svg">
<path d="M14.8386 42.6667H38.0474V71.0753H8.11426V63.7155" stroke="#3D3E40" stroke-width="1.8" stroke-linecap="round" stroke-linejoin="round"/>
<path d="M38.0469 50.7092H48.0598L56.1869 60.1477V71.0741H38.0469V50.7092Z" fill="white" stroke="#3D3E40" stroke-width="1.8" stroke-linecap="round" stroke-linejoin="round"/>
<path d="M17.9515 76.4834C20.9687 76.4834 23.4146 74.0374 23.4146 71.0202C23.4146 68.003 20.9687 65.557 17.9515 65.557C14.9342 65.557 12.4883 68.003 12.4883 71.0202C12.4883 74.0374 14.9342 76.4834 17.9515 76.4834Z" fill="#00FF95" stroke="#3D3E40" stroke-width="1.8" stroke-linecap="round" stroke-linejoin="round"/>
<path d="M46.3567 76.4834C49.374 76.4834 51.8199 74.0374 51.8199 71.0202C51.8199 68.003 49.374 65.557 46.3567 65.557C43.3395 65.557 40.8936 68.003 40.8936 71.0202C40.8936 74.0374 43.3395 76.4834 46.3567 76.4834Z" fill="#00FF95" stroke="#3D3E40" stroke-width="1.8" stroke-linecap="round" stroke-linejoin="round"/>
<path d="M46.6826 61.6443H45.7826C45.7826 62.1413 46.1856 62.5443 46.6826 62.5443V61.6443ZM47.5826 55.5444C47.5826 55.0474 47.1797 54.6444 46.6826 54.6444C46.1856 54.6444 45.7826 55.0474 45.7826 55.5444H47.5826ZM56.1201 60.7443H46.6826V62.5443H56.1201V60.7443ZM47.5826 61.6443V55.5444H45.7826V61.6443H47.5826Z" fill="#3D3E40"/>
<path d="M21.9374 49.7651H8.47168" stroke="#3D3E40" stroke-width="1.8" stroke-linecap="round" stroke-linejoin="round"/>
<path d="M18.4833 56.7764H5.01758" stroke="#3D3E40" stroke-width="1.8" stroke-linecap="round" stroke-linejoin="round"/>
<path d="M51.6667 11.8928L14.8005 11.8928C8.87976 11.8928 4.08008 16.6925 4.08008 22.6132V22.6132C4.08008 28.5339 8.87975 33.3336 14.8005 33.3336H61.8617C70.5906 33.3336 77.6667 40.4097 77.6667 49.1386V49.1386C77.6667 57.8675 70.5905 64.9436 61.8617 64.9436H61.6667" stroke="#3D3E40" stroke-width="1.8" stroke-linecap="round" stroke-dasharray="4 4"/>
<path fill-rule="evenodd" clip-rule="evenodd" d="M66.5431 26.4392C66.5431 26.4392 75.9553 18.358 75.9553 11.0374C75.9553 8.54108 74.9637 6.14704 73.1986 4.3819C71.4334 2.61677 69.0394 1.62512 66.5431 1.62512C64.0468 1.62512 61.6528 2.61677 59.8876 4.3819C58.1225 6.14704 57.1309 8.54108 57.1309 11.0374C57.1309 18.358 66.5431 26.4392 66.5431 26.4392ZM70.8214 11.0372C70.8214 13.4 68.906 15.3155 66.5431 15.3155C64.1803 15.3155 62.2648 13.4 62.2648 11.0372C62.2648 8.67434 64.1803 6.75889 66.5431 6.75889C68.906 6.75889 70.8214 8.67434 70.8214 11.0372Z" fill="#00FF95"/>
<path d="M66.5429 15.3155C68.9058 15.3155 70.8212 13.4 70.8212 11.0372C70.8212 8.67437 68.9058 6.75891 66.5429 6.75891C64.1801 6.75891 62.2646 8.67437 62.2646 11.0372C62.2646 13.4 64.1801 15.3155 66.5429 15.3155Z" stroke="#3D3E40" stroke-width="1.8" stroke-linecap="round" stroke-linejoin="round"/>
<path d="M75.9553 11.0374C75.9553 18.358 66.5431 26.4392 66.5431 26.4392C66.5431 26.4392 57.1309 18.358 57.1309 11.0374C57.1309 8.54108 58.1225 6.14704 59.8876 4.3819C61.6528 2.61677 64.0468 1.62512 66.5431 1.62512C69.0394 1.62512 71.4334 2.61677 73.1986 4.3819C74.9637 6.14704 75.9553 8.54108 75.9553 11.0374Z" stroke="#3D3E40" stroke-width="1.8" stroke-linecap="round" stroke-linejoin="round"/>
</svg>
