<svg width="80" height="80" viewBox="0 0 80 80" fill="none" xmlns="http://www.w3.org/2000/svg">
<path d="M10.7945 26C8.97527 26 7.5 27.4911 7.5 29.3308C7.5 30.8159 8.07653 34.3405 13.7516 37.9034C13.8533 37.9666 13.97 38 14.089 38C14.208 38 14.3247 37.9666 14.4263 37.9034C20.1014 34.3405 20.6779 30.8159 20.6779 29.3308C20.6779 27.4911 19.2026 26 17.3834 26C15.5642 26 14.089 28.0187 14.089 28.0187C14.089 28.0187 12.6137 26 10.7945 26Z" fill="#3D3E40" stroke="#3D3E40" stroke-width="0.848674" stroke-linecap="round" stroke-linejoin="round"/>
<mask id="path-2-inside-1_4351_10320" fill="white">
<path fill-rule="evenodd" clip-rule="evenodd" d="M24.6101 20.7606V23.7373C24.6101 24.2503 25.0249 24.6651 25.5379 24.6651C26.0509 24.6651 26.4657 24.2502 26.4657 23.7373V20.7606H74.551L70.5389 23.4745C70.3204 23.6233 70.1494 23.8133 70.0291 24.035C70.0164 24.0603 70.0037 24.0856 69.9942 24.111C69.8992 24.3168 69.8486 24.5385 69.8486 24.7696C69.8486 25.0293 69.9119 25.2763 70.0291 25.5011L70.0322 25.5043H70.0291C70.1462 25.726 70.3172 25.9191 70.5389 26.0648L75.9222 29.7128L70.5421 33.3544C70.3236 33.5033 70.1526 33.6933 70.0322 33.9149C70.0196 33.9403 70.0069 33.9656 69.9974 33.9909C69.9024 34.1968 69.8517 34.4184 69.8517 34.6496C69.8517 34.9093 69.9151 35.1563 70.0322 35.3811L70.0354 35.3843H70.0322C70.1494 35.6059 70.3204 35.7959 70.5421 35.9448L75.9222 39.5896L70.5421 43.2313C70.3236 43.3801 70.1526 43.5701 70.0322 43.7918C70.0196 43.8171 70.0069 43.8424 69.9974 43.8678C69.9024 44.0736 69.8517 44.2953 69.8517 44.5264C69.8517 44.7861 69.9151 45.0331 70.0322 45.2579L70.0354 45.2611H70.0322C70.1494 45.4828 70.3204 45.6759 70.5421 45.8216L75.9222 49.4664L70.5421 53.1081C70.3236 53.2569 70.1526 53.4469 70.0322 53.6686C70.0196 53.6939 70.0069 53.7193 69.9974 53.7446C69.9024 53.9504 69.8517 54.1721 69.8517 54.4033C69.8517 54.6629 69.9151 54.9099 70.0322 55.1348L70.0354 55.1379H70.0322C70.1494 55.3596 70.3204 55.5528 70.5421 55.6984L74.5542 58.4123H26.4656V55.4356C26.4656 54.9226 26.0508 54.5078 25.5378 54.5078C25.0248 54.5078 24.61 54.9226 24.61 55.4356V58.4123H3.85292L3.85609 20.761L24.6101 20.7606ZM19.6285 53.6153C20.1415 53.6153 20.5563 53.2005 20.5563 52.6875C20.5563 52.1745 20.1415 51.7597 19.6285 51.7597H8.83367C8.32068 51.7597 7.90587 52.1745 7.90587 52.6875C7.90587 53.2005 8.3207 53.6153 8.83367 53.6153H19.6285ZM19.6285 48.5455C20.1415 48.5455 20.5563 48.1306 20.5563 47.6177C20.5563 47.1047 20.1415 46.6899 19.6285 46.6899H8.83367C8.32068 46.6899 7.90587 47.1047 7.90587 47.6177C7.90587 48.1307 8.3207 48.5455 8.83367 48.5455H19.6285ZM19.6285 43.4757C20.1415 43.4757 20.5563 43.0608 20.5563 42.5479C20.5563 42.0349 20.1415 41.6201 19.6285 41.6201H8.83367C8.32068 41.6201 7.90587 42.0349 7.90587 42.5479C7.90587 43.0609 8.3207 43.4757 8.83367 43.4757H19.6285ZM3.56435 60.2718H75.4889C75.8309 60.2718 76.1539 60.161 76.4199 59.9647C76.6637 59.7842 76.8506 59.534 76.9582 59.2332C76.9677 59.211 76.9741 59.1888 76.9804 59.1667C77.0817 58.8342 77.0722 58.4922 76.9646 58.1882C76.8695 57.9159 76.6954 57.6689 76.4547 57.482C76.4262 57.4567 76.3945 57.4345 76.3629 57.4124L71.9264 54.4104L77.3065 50.7687C77.525 50.6199 77.696 50.4299 77.8163 50.2082H77.8132L77.8163 50.2051C77.9367 49.9739 78 49.7269 78 49.4672C78 49.2044 77.9367 48.9574 77.8195 48.7326H77.8163C77.696 48.5077 77.525 48.3177 77.3097 48.1689L71.9295 44.5272L77.3097 40.8856C77.5282 40.7367 77.6992 40.5467 77.8195 40.3251C77.9367 40.1002 78 39.8532 78 39.5904C78 39.3276 77.9367 39.0774 77.8195 38.8557C77.7023 38.6341 77.5313 38.4409 77.3097 38.2952L71.9295 34.6536L77.3097 31.0119C77.4997 30.882 77.6548 30.7205 77.772 30.5274C77.7878 30.502 77.8037 30.4767 77.8195 30.4482C77.9367 30.2234 78 29.9764 78 29.7136C78 29.4824 77.9493 29.2576 77.8543 29.0549C77.8448 29.0296 77.8322 29.0042 77.8195 28.9789C77.7023 28.7572 77.5313 28.5641 77.3097 28.4184L71.9295 24.7767L76.366 21.7747L76.3629 21.7716H76.366C76.6542 21.5752 76.86 21.3061 76.9677 20.9989C77.0754 20.6917 77.088 20.3498 76.9835 20.0204C76.8822 19.6879 76.6827 19.4124 76.4199 19.2193C76.1539 19.0229 75.8309 18.9121 75.4889 18.9121H3.56435C3.13685 18.9121 2.7442 19.0863 2.46233 19.3713L2.45917 19.3744C2.17417 19.6563 2 20.0458 2 20.4733V58.7075C2 59.135 2.17416 59.5245 2.456 59.8064L2.46233 59.8127C2.74733 60.0945 3.13683 60.2718 3.56435 60.2718ZM26.4656 28.2692C26.4656 27.7562 26.0508 27.3414 25.5378 27.3414C25.0248 27.3414 24.61 27.7562 24.61 28.2692V32.7975C24.61 33.3105 25.0248 33.7253 25.5378 33.7253C26.0508 33.7253 26.4656 33.3105 26.4656 32.7975V28.2692ZM26.4656 37.326C26.4656 36.813 26.0508 36.3982 25.5378 36.3982C25.0248 36.3982 24.61 36.813 24.61 37.326V41.8543C24.61 42.3673 25.0248 42.7821 25.5378 42.7821C26.0508 42.7821 26.4656 42.3672 26.4656 41.8543V37.326ZM26.4656 46.3827C26.4656 45.8697 26.0508 45.4549 25.5378 45.4549C25.0248 45.4549 24.61 45.8697 24.61 46.3827V50.911C24.61 51.424 25.0248 51.8388 25.5378 51.8388C26.0508 51.8388 26.4656 51.424 26.4656 50.911V46.3827Z"/>
</mask>
<path fill-rule="evenodd" clip-rule="evenodd" d="M24.6101 20.7606V23.7373C24.6101 24.2503 25.0249 24.6651 25.5379 24.6651C26.0509 24.6651 26.4657 24.2502 26.4657 23.7373V20.7606H74.551L70.5389 23.4745C70.3204 23.6233 70.1494 23.8133 70.0291 24.035C70.0164 24.0603 70.0037 24.0856 69.9942 24.111C69.8992 24.3168 69.8486 24.5385 69.8486 24.7696C69.8486 25.0293 69.9119 25.2763 70.0291 25.5011L70.0322 25.5043H70.0291C70.1462 25.726 70.3172 25.9191 70.5389 26.0648L75.9222 29.7128L70.5421 33.3544C70.3236 33.5033 70.1526 33.6933 70.0322 33.9149C70.0196 33.9403 70.0069 33.9656 69.9974 33.9909C69.9024 34.1968 69.8517 34.4184 69.8517 34.6496C69.8517 34.9093 69.9151 35.1563 70.0322 35.3811L70.0354 35.3843H70.0322C70.1494 35.6059 70.3204 35.7959 70.5421 35.9448L75.9222 39.5896L70.5421 43.2313C70.3236 43.3801 70.1526 43.5701 70.0322 43.7918C70.0196 43.8171 70.0069 43.8424 69.9974 43.8678C69.9024 44.0736 69.8517 44.2953 69.8517 44.5264C69.8517 44.7861 69.9151 45.0331 70.0322 45.2579L70.0354 45.2611H70.0322C70.1494 45.4828 70.3204 45.6759 70.5421 45.8216L75.9222 49.4664L70.5421 53.1081C70.3236 53.2569 70.1526 53.4469 70.0322 53.6686C70.0196 53.6939 70.0069 53.7193 69.9974 53.7446C69.9024 53.9504 69.8517 54.1721 69.8517 54.4033C69.8517 54.6629 69.9151 54.9099 70.0322 55.1348L70.0354 55.1379H70.0322C70.1494 55.3596 70.3204 55.5528 70.5421 55.6984L74.5542 58.4123H26.4656V55.4356C26.4656 54.9226 26.0508 54.5078 25.5378 54.5078C25.0248 54.5078 24.61 54.9226 24.61 55.4356V58.4123H3.85292L3.85609 20.761L24.6101 20.7606ZM19.6285 53.6153C20.1415 53.6153 20.5563 53.2005 20.5563 52.6875C20.5563 52.1745 20.1415 51.7597 19.6285 51.7597H8.83367C8.32068 51.7597 7.90587 52.1745 7.90587 52.6875C7.90587 53.2005 8.3207 53.6153 8.83367 53.6153H19.6285ZM19.6285 48.5455C20.1415 48.5455 20.5563 48.1306 20.5563 47.6177C20.5563 47.1047 20.1415 46.6899 19.6285 46.6899H8.83367C8.32068 46.6899 7.90587 47.1047 7.90587 47.6177C7.90587 48.1307 8.3207 48.5455 8.83367 48.5455H19.6285ZM19.6285 43.4757C20.1415 43.4757 20.5563 43.0608 20.5563 42.5479C20.5563 42.0349 20.1415 41.6201 19.6285 41.6201H8.83367C8.32068 41.6201 7.90587 42.0349 7.90587 42.5479C7.90587 43.0609 8.3207 43.4757 8.83367 43.4757H19.6285ZM3.56435 60.2718H75.4889C75.8309 60.2718 76.1539 60.161 76.4199 59.9647C76.6637 59.7842 76.8506 59.534 76.9582 59.2332C76.9677 59.211 76.9741 59.1888 76.9804 59.1667C77.0817 58.8342 77.0722 58.4922 76.9646 58.1882C76.8695 57.9159 76.6954 57.6689 76.4547 57.482C76.4262 57.4567 76.3945 57.4345 76.3629 57.4124L71.9264 54.4104L77.3065 50.7687C77.525 50.6199 77.696 50.4299 77.8163 50.2082H77.8132L77.8163 50.2051C77.9367 49.9739 78 49.7269 78 49.4672C78 49.2044 77.9367 48.9574 77.8195 48.7326H77.8163C77.696 48.5077 77.525 48.3177 77.3097 48.1689L71.9295 44.5272L77.3097 40.8856C77.5282 40.7367 77.6992 40.5467 77.8195 40.3251C77.9367 40.1002 78 39.8532 78 39.5904C78 39.3276 77.9367 39.0774 77.8195 38.8557C77.7023 38.6341 77.5313 38.4409 77.3097 38.2952L71.9295 34.6536L77.3097 31.0119C77.4997 30.882 77.6548 30.7205 77.772 30.5274C77.7878 30.502 77.8037 30.4767 77.8195 30.4482C77.9367 30.2234 78 29.9764 78 29.7136C78 29.4824 77.9493 29.2576 77.8543 29.0549C77.8448 29.0296 77.8322 29.0042 77.8195 28.9789C77.7023 28.7572 77.5313 28.5641 77.3097 28.4184L71.9295 24.7767L76.366 21.7747L76.3629 21.7716H76.366C76.6542 21.5752 76.86 21.3061 76.9677 20.9989C77.0754 20.6917 77.088 20.3498 76.9835 20.0204C76.8822 19.6879 76.6827 19.4124 76.4199 19.2193C76.1539 19.0229 75.8309 18.9121 75.4889 18.9121H3.56435C3.13685 18.9121 2.7442 19.0863 2.46233 19.3713L2.45917 19.3744C2.17417 19.6563 2 20.0458 2 20.4733V58.7075C2 59.135 2.17416 59.5245 2.456 59.8064L2.46233 59.8127C2.74733 60.0945 3.13683 60.2718 3.56435 60.2718ZM26.4656 28.2692C26.4656 27.7562 26.0508 27.3414 25.5378 27.3414C25.0248 27.3414 24.61 27.7562 24.61 28.2692V32.7975C24.61 33.3105 25.0248 33.7253 25.5378 33.7253C26.0508 33.7253 26.4656 33.3105 26.4656 32.7975V28.2692ZM26.4656 37.326C26.4656 36.813 26.0508 36.3982 25.5378 36.3982C25.0248 36.3982 24.61 36.813 24.61 37.326V41.8543C24.61 42.3673 25.0248 42.7821 25.5378 42.7821C26.0508 42.7821 26.4656 42.3672 26.4656 41.8543V37.326ZM26.4656 46.3827C26.4656 45.8697 26.0508 45.4549 25.5378 45.4549C25.0248 45.4549 24.61 45.8697 24.61 46.3827V50.911C24.61 51.424 25.0248 51.8388 25.5378 51.8388C26.0508 51.8388 26.4656 51.424 26.4656 50.911V46.3827Z" fill="#3D3E40" stroke="white" stroke-width="0.211111" mask="url(#path-2-inside-1_4351_10320)"/>
<path d="M40.9996 48.1371L58.1367 31" stroke="#3D3E40" stroke-width="2" stroke-linecap="round"/>
<circle cx="42.9586" cy="32.9594" r="3.24823" fill="#00FF95" stroke="#3D3E40" stroke-width="1.4"/>
<circle cx="56.3371" cy="46.3373" r="3.24823" fill="#00FF95" stroke="#3D3E40" stroke-width="1.4"/>
</svg>
