<svg width="80" height="80" viewBox="0 0 80 80" fill="none" xmlns="http://www.w3.org/2000/svg">
<path d="M51.9091 49.0038C52.707 48.525 52.707 47.3686 51.9091 46.8899L34.9943 36.741C34.1727 36.2481 33.1275 36.8399 33.1275 37.798V58.0957C33.1275 59.0538 34.1727 59.6456 34.9943 59.1526L51.9091 49.0038Z" fill="#00FF95" stroke="#3D3E40" stroke-width="2"/>
<path d="M7 34.1765C7 21.3654 7 14.9598 10.9799 10.9799C14.9598 7 21.3654 7 34.1765 7H45.8235C58.6346 7 65.0402 7 69.0201 10.9799C73 14.9598 73 21.3654 73 34.1765V45.8235C73 58.6346 73 65.0402 69.0201 69.0201C65.0402 73 58.6346 73 45.8235 73H34.1765C21.3654 73 14.9598 73 10.9799 69.0201C7 65.0402 7 58.6346 7 45.8235V34.1765Z" stroke="#3D3E40" stroke-width="2" stroke-linecap="round" stroke-linejoin="round"/>
<line x1="6.99986" y1="26.625" x2="72.9999" y2="26.625" stroke="#3D3E40" stroke-width="2"/>
<path d="M27.4205 7.45898L16.35 26.8003" stroke="#3D3E40" stroke-width="1.892"/>
<path d="M45.9831 7.45996L35.05 26.8002" stroke="#3D3E40" stroke-width="1.892"/>
<path d="M64.5457 7.45996L53.75 26.8002" stroke="#3D3E40" stroke-width="1.892"/>
</svg>
