<svg width="80" height="80" viewBox="0 0 80 80" fill="none" xmlns="http://www.w3.org/2000/svg">
<path d="M47.0411 12.8359H32.9589C31.3168 12.8359 30 11.5036 30 9.87692C30 8.23478 31.3323 6.91797 32.9589 6.91797H47.0411C48.6832 6.91797 50 8.25027 50 9.87692C50 11.5191 48.6677 12.8359 47.0411 12.8359Z" stroke="#3D3E40" stroke-width="1.64555"/>
<path fill-rule="evenodd" clip-rule="evenodd" d="M20.0747 1.66602H60.6997C68.6379 1.66602 73.3075 5.70291 73.3075 14.4244V76.612H72.1326V14.4395C72.1326 10.508 71.1384 7.5406 69.1651 5.62759C67.2672 3.77484 64.4203 2.84093 60.6997 2.84093H20.0747C16.4596 2.84093 13.6729 3.80497 11.79 5.71797C9.90717 7.63098 8.94313 10.4628 8.94313 14.1231V76.612H7.78328V64.8554H7V54.5824H7.78328V52.097H7V41.6734H7.78328V37.0039H7V31.8674H7.78328V14.1231C7.78328 6.33556 11.9859 1.66602 20.0747 1.66602Z" fill="#3D3E40"/>
<path d="M73.3075 76.612V76.9132H73.6087V76.612H73.3075ZM72.1326 76.612H71.8313V76.9132H72.1326V76.612ZM69.1651 5.62759L68.9547 5.84317L68.9554 5.84389L69.1651 5.62759ZM11.79 5.71797L12.0048 5.9293L11.79 5.71797ZM8.94313 76.612V76.9132H9.24439V76.612H8.94313ZM7.78328 76.612H7.48202V76.9132H7.78328V76.612ZM7.78328 64.8554H8.08454V64.5542H7.78328V64.8554ZM7 64.8554H6.69874V65.1567H7V64.8554ZM7 54.5824V54.2812H6.69874V54.5824H7ZM7.78328 54.5824V54.8837H8.08454V54.5824H7.78328ZM7.78328 52.097H8.08454V51.7958H7.78328V52.097ZM7 52.097H6.69874V52.3983H7V52.097ZM7 41.6734V41.3722H6.69874V41.6734H7ZM7.78328 41.6734V41.9747H8.08454V41.6734H7.78328ZM7.78328 37.0039H8.08454V36.7026H7.78328V37.0039ZM7 37.0039H6.69874V37.3051H7V37.0039ZM7 31.8674V31.5661H6.69874V31.8674H7ZM7.78328 31.8674V32.1687H8.08454V31.8674H7.78328ZM60.6997 1.36476H20.0747V1.96728H60.6997V1.36476ZM73.6087 14.4244C73.6087 10.0118 72.4267 6.73249 70.1904 4.55863C67.9557 2.38631 64.7164 1.36476 60.6997 1.36476V1.96728C64.6212 1.96728 67.6858 2.96417 69.7704 4.99066C71.8535 7.01563 73.0062 10.1155 73.0062 14.4244H73.6087ZM73.6087 76.612V14.4244H73.0062V76.612H73.6087ZM72.1326 76.9132H73.3075V76.3107H72.1326V76.9132ZM71.8313 14.4395V76.612H72.4338V14.4395H71.8313ZM68.9554 5.84389C70.8485 7.67917 71.8313 10.5534 71.8313 14.4395H72.4338C72.4338 10.4626 71.4283 7.40203 69.3748 5.41129L68.9554 5.84389ZM60.6997 3.14219C64.374 3.14219 67.1326 4.06445 68.9547 5.84317L69.3756 5.41202C67.4018 3.48523 64.4665 2.53967 60.6997 2.53967V3.14219ZM20.0747 3.14219H60.6997V2.53967H20.0747V3.14219ZM12.0048 5.9293C13.8133 4.09182 16.511 3.14219 20.0747 3.14219V2.53967C16.4082 2.53967 13.5326 3.51811 11.5753 5.50664L12.0048 5.9293ZM9.24439 14.1231C9.24439 10.5131 10.1947 7.76829 12.0048 5.9293L11.5753 5.50664C9.61962 7.49366 8.64187 10.4126 8.64187 14.1231H9.24439ZM9.24439 76.612V14.1231H8.64187V76.612H9.24439ZM7.78328 76.9132H8.94313V76.3107H7.78328V76.9132ZM7.48202 64.8554V76.612H8.08454V64.8554H7.48202ZM7 65.1567H7.78328V64.5542H7V65.1567ZM6.69874 54.5824V64.8554H7.30126V54.5824H6.69874ZM7.78328 54.2812H7V54.8837H7.78328V54.2812ZM7.48202 52.097V54.5824H8.08454V52.097H7.48202ZM7 52.3983H7.78328V51.7958H7V52.3983ZM6.69874 41.6734V52.097H7.30126V41.6734H6.69874ZM7.78328 41.3722H7V41.9747H7.78328V41.3722ZM7.48202 37.0039V41.6734H8.08454V37.0039H7.48202ZM7 37.3051H7.78328V36.7026H7V37.3051ZM6.69874 31.8674V37.0039H7.30126V31.8674H6.69874ZM7.78328 31.5661H7V32.1687H7.78328V31.5661ZM7.48202 14.1231V31.8674H8.08454V14.1231H7.48202ZM20.0747 1.36476C15.9724 1.36476 12.812 2.55015 10.6787 4.76526C8.54721 6.97848 7.48202 10.1773 7.48202 14.1231H8.08454C8.08454 10.2813 9.12063 7.25165 11.1127 5.18321C13.1029 3.11665 16.0881 1.96728 20.0747 1.96728V1.36476Z" fill="#3D3E40"/>
<rect x="14" y="47.541" width="25.2702" height="25.2703" rx="4" fill="#EEECE9"/>
<rect x="42.2703" y="47.2705" width="25.2703" height="25.2703" rx="4" fill="#EEECE9"/>
<rect x="42.2703" y="19" width="25.2702" height="25.2703" rx="4" fill="#EEECE9"/>
<rect x="14" y="19" width="25.2703" height="25.2703" rx="5.05406" fill="#00FF95"/>
<path fill-rule="evenodd" clip-rule="evenodd" d="M26.5812 36.83C24.8774 36.83 23.7744 36.8263 22.9625 36.7181C22.1986 36.6162 21.9645 36.4517 21.8375 36.3247C21.7106 36.1978 21.546 35.9637 21.4442 35.1997C21.3359 34.3878 21.3323 33.2848 21.3323 31.5811C21.3323 29.8773 21.3359 28.7743 21.4442 27.9624C21.546 27.1984 21.7106 26.9644 21.8375 26.8374C21.9645 26.7104 22.1986 26.5459 22.9625 26.444C23.7744 26.3358 24.8774 26.3321 26.5812 26.3321C28.2849 26.3321 29.3879 26.3358 30.1998 26.444C30.9638 26.5459 31.1978 26.7104 31.3248 26.8374C31.4518 26.9644 31.6163 27.1984 31.7181 27.9624C31.8264 28.7743 31.83 29.8773 31.83 31.5811C31.83 33.2848 31.8264 34.3878 31.7181 35.1997C31.6163 35.9637 31.4518 36.1978 31.3248 36.3247C31.1978 36.4517 30.9638 36.6162 30.1998 36.7181C29.3879 36.8263 28.2849 36.83 26.5812 36.83ZM19.5812 31.5811C19.5812 28.2719 19.5812 26.6173 20.5993 25.5992C21.6174 24.5811 23.272 24.5811 26.5812 24.5811C29.8903 24.5811 31.5449 24.5811 32.563 25.5992C33.5811 26.6173 33.5811 28.2719 33.5811 31.5811C33.5811 34.8902 33.5811 36.5448 32.563 37.5629C31.5449 38.5811 29.8903 38.5811 26.5812 38.5811C23.272 38.5811 21.6174 38.5811 20.5993 37.5629C19.5812 36.5448 19.5812 34.8902 19.5812 31.5811ZM23.1542 33.2828C23.5812 33.7467 24.1929 34.2494 25.1022 34.5784C26.0202 34.9105 27.2258 34.9704 28.2187 34.7198C29.2218 34.4667 30.1062 33.881 30.6454 33.2682L29.3309 32.1114C29.0201 32.4646 28.4421 32.8574 27.7902 33.022C27.1281 33.1891 26.2795 33.1422 25.6979 32.9317C25.1076 32.7182 24.7226 32.4011 24.4425 32.0968L23.1542 33.2828Z" fill="#282827"/>
<rect x="52.85" y="51.85" width="26.3" height="26.3" rx="13.15" fill="#FDFBF8"/>
<rect x="52.85" y="51.85" width="26.3" height="26.3" rx="13.15" stroke="#3D3E40" stroke-width="1.7"/>
<path d="M66 58V72" stroke="#3D3E40" stroke-width="1.7" stroke-linecap="round" stroke-linejoin="round"/>
<path d="M73 65L66 72L59 65" stroke="#3D3E40" stroke-width="1.7" stroke-linecap="round" stroke-linejoin="round"/>
</svg>
