<svg width="80" height="80" viewBox="0 0 80 80" fill="none" xmlns="http://www.w3.org/2000/svg">
<path d="M71.06 31.3571L64.7385 25.8267V10.9737C64.7385 9.86024 63.8331 8.95634 62.7211 8.95634H45.4586L41.4452 5.44482C40.768 4.85173 39.7458 4.85173 39.0686 5.44482L35.0552 8.95634H17.7913C16.6778 8.95634 15.7739 9.86167 15.7739 10.9737V25.8253L9.45233 31.3556C9.34398 31.4497 9.28125 31.5866 9.28125 31.7306V73.501C9.28125 73.7762 9.50509 74 9.78025 74H70.7307C71.0059 74 71.2297 73.7762 71.2297 73.501V31.732C71.2297 31.588 71.167 31.4512 71.0586 31.3571H71.06ZM67.2534 33.3331C67.2534 33.3331 67.2534 33.3331 64.7385 34.8988L67.2534 33.3331ZM39.7244 6.19474C40.0267 5.92956 40.4843 5.92956 40.7866 6.19474L43.9416 8.95491H41.3212L36.5005 9L39.723 6.19332L39.7244 6.19474ZM10.2807 32.6359L34.5762 47.9324C34.6589 47.9837 34.7501 48.0093 34.8414 48.0093C35.0067 48.0093 35.1693 47.9267 35.2648 47.7755C35.4116 47.5417 35.3418 47.2338 35.108 47.0869L16.7719 35.5444V10.9737C16.7719 10.4106 17.2296 9.95434 17.7913 9.95434H62.7211C63.2842 9.95434 63.7405 10.412 63.7405 10.9737V35.5444L43.0192 48.591L41.6177 47.3649C40.8422 46.6849 39.6702 46.6863 38.8946 47.3649L10.2807 72.4018V32.6359ZM70.2317 73.002H11.109L39.5519 48.1148C39.9539 47.7641 40.5599 47.7641 40.9605 48.1148L67.1465 71.0274C67.3546 71.2085 67.6697 71.1885 67.8508 70.9804C68.0318 70.7736 68.0119 70.4571 67.8037 70.2761L43.8034 49.2754L70.2317 32.6359V73.002Z" fill="#3D3E40"/>
<path d="M67.2534 33.3331L69.8981 31.6679M67.2534 33.3331C67.2534 33.3331 67.2534 33.3331 64.7385 34.8988L67.2534 33.3331ZM71.06 31.3571L64.7385 25.8267V10.9737C64.7385 9.86024 63.8331 8.95634 62.7211 8.95634H45.4586L41.4452 5.44482C40.768 4.85173 39.7458 4.85173 39.0686 5.44482L35.0552 8.95634H17.7913C16.6778 8.95634 15.7739 9.86167 15.7739 10.9737V25.8253L9.45233 31.3556C9.34398 31.4497 9.28125 31.5866 9.28125 31.7306V73.501C9.28125 73.7762 9.50509 74 9.78025 74H70.7307C71.0059 74 71.2297 73.7762 71.2297 73.501V31.732C71.2297 31.588 71.167 31.4512 71.0586 31.3571H71.06ZM39.7244 6.19474C40.0267 5.92956 40.4843 5.92956 40.7866 6.19474L43.9416 8.95491H41.3212L36.5005 9L39.723 6.19332L39.7244 6.19474ZM10.2807 32.6359L34.5762 47.9324C34.6589 47.9837 34.7501 48.0093 34.8413 48.0093C35.0067 48.0093 35.1693 47.9266 35.2648 47.7755C35.4116 47.5417 35.3418 47.2338 35.108 47.0869L16.7719 35.5444V10.9737C16.7719 10.4106 17.2296 9.95434 17.7913 9.95434H62.7211C63.2842 9.95434 63.7405 10.412 63.7405 10.9737V35.5444L43.0192 48.591L41.6177 47.3649C40.8422 46.6849 39.6702 46.6863 38.8946 47.3649L10.2807 72.4018V32.6359ZM70.2317 73.002H11.109L39.5519 48.1148C39.9539 47.7641 40.5599 47.7641 40.9605 48.1148L67.1465 71.0274C67.3546 71.2085 67.6697 71.1885 67.8508 70.9804C68.0318 70.7736 68.0119 70.4571 67.8037 70.2761L43.8034 49.2754L70.2317 32.6359V73.002Z" stroke="#3D3E40" stroke-width="0.3"/>
<path d="M53.7254 39.2839C53.7254 39.0087 53.5016 38.7849 53.2264 38.7849H27.2871C27.0119 38.7849 26.7881 39.0087 26.7881 39.2839C26.7881 39.559 27.0119 39.7829 27.2871 39.7829H53.2264C53.5016 39.7829 53.7254 39.559 53.7254 39.2839Z" fill="#3D3E40" stroke="#3D3E40" stroke-width="0.3"/>
<path d="M27.2871 35.4063H53.2264C53.5016 35.4063 53.7254 35.1824 53.7254 34.9073C53.7254 34.6321 53.5016 34.4083 53.2264 34.4083H27.2871C27.0119 34.4083 26.7881 34.6321 26.7881 34.9073C26.7881 35.1824 27.0119 35.4063 27.2871 35.4063Z" fill="#3D3E40" stroke="#3D3E40" stroke-width="0.3"/>
<path d="M35.9236 16C33.757 16 32 17.7759 32 19.9668C32 21.7355 32.6866 25.9331 39.4454 30.1764C39.5664 30.2517 39.7054 30.2914 39.8471 30.2914C39.9889 30.2914 40.1278 30.2517 40.2489 30.1764C47.0077 25.9331 47.6943 21.7355 47.6943 19.9668C47.6943 17.7759 45.9373 16 43.7707 16C41.6041 16 39.8471 18.4041 39.8471 18.4041C39.8471 18.4041 38.0902 16 35.9236 16Z" fill="#00FF95" stroke="#3D3E40" stroke-width="1.03063" stroke-linecap="round" stroke-linejoin="round"/>
<path d="M36.6113 22.584C36.9743 23.9942 38.2545 25.0363 39.778 25.0363C41.3016 25.0363 42.5818 23.9942 42.9447 22.584" stroke="#3D3E40" stroke-width="1.03063" stroke-linecap="round" stroke-linejoin="round"/>
</svg>
