<svg width="80" height="80" viewBox="0 0 80 80" fill="none" xmlns="http://www.w3.org/2000/svg">
<path d="M35.596 7.50567C38.1735 5.4539 41.8265 5.4539 44.404 7.50567L49.6256 11.6621C50.6637 12.4884 51.9133 13.006 53.2316 13.1558L59.8628 13.9089C63.1363 14.2807 65.7193 16.8637 66.0911 20.1372L66.8442 26.7684C66.994 28.0867 67.5116 29.3363 68.3379 30.3744L72.4943 35.596C74.5461 38.1735 74.5461 41.8265 72.4943 44.404L68.3379 49.6256C67.5116 50.6637 66.994 51.9133 66.8442 53.2316L66.0911 59.8628C65.7193 63.1363 63.1363 65.7193 59.8628 66.0911L53.2316 66.8442C51.9133 66.994 50.6637 67.5116 49.6256 68.3379L44.404 72.4943C41.8265 74.5461 38.1735 74.5461 35.596 72.4943L30.3744 68.3379C29.3363 67.5116 28.0867 66.994 26.7684 66.8442L20.1372 66.0911C16.8637 65.7193 14.2807 63.1363 13.9089 59.8628L13.1558 53.2316C13.006 51.9133 12.4884 50.6637 11.6621 49.6256L7.50567 44.404C5.4539 41.8265 5.4539 38.1735 7.50567 35.596L11.6621 30.3744C12.4884 29.3363 13.006 28.0867 13.1558 26.7684L13.9089 20.1372C14.2807 16.8637 16.8637 14.2807 20.1372 13.9089L26.7684 13.1558C28.0867 13.006 29.3363 12.4884 30.3744 11.6621L35.596 7.50567Z" fill="url(#paint0_linear_4350_8447)"/>
<mask id="path-2-inside-1_4350_8447" fill="white">
<path d="M41.6666 6C43.3235 6 44.6666 7.34315 44.6666 9L44.6666 71C44.6666 72.6569 43.3235 74 41.6666 74L37.6666 74C36.0098 74 34.6666 72.6569 34.6666 71L34.6666 9C34.6666 7.34314 36.0098 6 37.6666 6L41.6666 6Z"/>
</mask>
<path d="M41.6666 6C43.3235 6 44.6666 7.34315 44.6666 9L44.6666 71C44.6666 72.6569 43.3235 74 41.6666 74L37.6666 74C36.0098 74 34.6666 72.6569 34.6666 71L34.6666 9C34.6666 7.34314 36.0098 6 37.6666 6L41.6666 6Z" fill="white"/>
<path d="M41.6666 6C44.0967 6 46.0666 7.96995 46.0666 10.4L46.0666 69.6C46.0666 72.0301 44.0967 74 41.6666 74C42.5503 74 43.2666 72.6569 43.2666 71L43.2666 9C43.2666 7.34315 42.5503 6 41.6666 6ZM37.6666 74C35.2366 74 33.2666 72.0301 33.2666 69.6L33.2666 10.4C33.2666 7.96995 35.2366 6 37.6666 6C36.783 6 36.0666 7.34315 36.0666 9L36.0666 71C36.0666 72.6569 36.783 74 37.6666 74ZM34.6666 6L44.6666 6L34.6666 6ZM44.6666 74L34.6666 74L44.6666 74Z" fill="#3D3E40" mask="url(#path-2-inside-1_4350_8447)"/>
<mask id="path-4-inside-2_4350_8447" fill="white">
<path d="M73.6666 42C73.6666 43.6569 72.3235 45 70.6666 45L8.66663 45C7.00977 45 5.66663 43.6568 5.66663 42L5.66663 38C5.66663 36.3431 7.00977 35 8.66663 35L70.6666 35C72.3235 35 73.6666 36.3431 73.6666 38L73.6666 42Z"/>
</mask>
<path d="M73.6666 42C73.6666 43.6569 72.3235 45 70.6666 45L8.66663 45C7.00977 45 5.66663 43.6568 5.66663 42L5.66663 38C5.66663 36.3431 7.00977 35 8.66663 35L70.6666 35C72.3235 35 73.6666 36.3431 73.6666 38L73.6666 42Z" fill="white"/>
<path d="M73.6666 42C73.6666 44.4301 71.6967 46.4 69.2666 46.4L10.0666 46.4C7.63657 46.4 5.66663 44.43 5.66663 42C5.66663 42.8836 7.00977 43.6 8.66663 43.6L70.6666 43.6C72.3235 43.6 73.6666 42.8837 73.6666 42ZM5.66663 38C5.66663 35.5699 7.63657 33.6 10.0666 33.6L69.2666 33.6C71.6967 33.6 73.6666 35.57 73.6666 38C73.6666 37.1163 72.3235 36.4 70.6666 36.4L8.66663 36.4C7.00977 36.4 5.66663 37.1163 5.66663 38ZM73.6666 35L73.6666 45L73.6666 35ZM5.66663 45L5.66663 35L5.66663 45Z" fill="#3D3E40" mask="url(#path-4-inside-2_4350_8447)"/>
<path d="M35.596 7.50567C38.1735 5.4539 41.8265 5.4539 44.404 7.50567L49.6256 11.6621C50.6637 12.4884 51.9133 13.006 53.2316 13.1558L59.8628 13.9089C63.1363 14.2807 65.7193 16.8637 66.0911 20.1372L66.8442 26.7684C66.994 28.0867 67.5116 29.3363 68.3379 30.3744L72.4943 35.596C74.5461 38.1735 74.5461 41.8265 72.4943 44.404L68.3379 49.6256C67.5116 50.6637 66.994 51.9133 66.8442 53.2316L66.0911 59.8628C65.7193 63.1363 63.1363 65.7193 59.8628 66.0911L53.2316 66.8442C51.9133 66.994 50.6637 67.5116 49.6256 68.3379L44.404 72.4943C41.8265 74.5461 38.1735 74.5461 35.596 72.4943L30.3744 68.3379C29.3363 67.5116 28.0867 66.994 26.7684 66.8442L20.1372 66.0911C16.8637 65.7193 14.2807 63.1363 13.9089 59.8628L13.1558 53.2316C13.006 51.9133 12.4884 50.6637 11.6621 49.6256L7.50567 44.404C5.4539 41.8265 5.4539 38.1735 7.50567 35.596L11.6621 30.3744C12.4884 29.3363 13.006 28.0867 13.1558 26.7684L13.9089 20.1372C14.2807 16.8637 16.8637 14.2807 20.1372 13.9089L26.7684 13.1558C28.0867 13.006 29.3363 12.4884 30.3744 11.6621L35.596 7.50567Z" stroke="#3D3E40" stroke-width="1.4"/>
<path d="M37.1146 18.7109C38.8034 17.3666 41.1967 17.3666 42.8854 18.7109L46.3064 21.4341C46.9866 21.9754 47.8053 22.3146 48.669 22.4127L53.0136 22.9061C55.1583 23.1497 56.8506 24.842 57.0942 26.9867L57.5876 31.3313C57.6857 32.195 58.0248 33.0137 58.5662 33.6939L61.2894 37.1149C62.6337 38.8036 62.6337 41.1969 61.2894 42.8857L58.5662 46.3067C58.0248 46.9868 57.6857 47.8055 57.5876 48.6692L57.0942 53.0139C56.8506 55.1585 55.1583 56.8508 53.0136 57.0944L48.669 57.5879C47.8053 57.686 46.9866 58.0251 46.3064 58.5665L42.8854 61.2897C41.1967 62.6339 38.8034 62.6339 37.1146 61.2897L33.6936 58.5665C33.0135 58.0251 32.1948 57.686 31.331 57.5879L26.9864 57.0944C24.8418 56.8508 23.1495 55.1585 22.9059 53.0139L22.4124 48.6692C22.3143 47.8055 21.9752 46.9868 21.4338 46.3067L18.7106 42.8857C17.3664 41.1969 17.3664 38.8036 18.7106 37.1149L21.4338 33.6939C21.9752 33.0137 22.3143 32.195 22.4124 31.3313L22.9059 26.9867C23.1495 24.842 24.8418 23.1497 26.9864 22.9061L31.331 22.4127C32.1948 22.3146 33.0135 21.9754 33.6936 21.4341L37.1146 18.7109Z" fill="white" stroke="#3D3E40" stroke-width="1.4"/>
<path fill-rule="evenodd" clip-rule="evenodd" d="M34.1437 50.7089C31.4819 49.7207 29.6899 48.1989 28.4327 46.7882L31.4445 43.8473C32.3535 44.8674 33.6093 45.9355 35.5186 46.6443C37.4075 47.3456 40.1118 47.4818 42.2353 46.9059C44.3348 46.3365 46.189 45.0044 47.2047 43.7799L50.3161 46.6087C48.7673 48.4759 46.1951 50.2877 43.2708 51.0808C40.3705 51.8675 36.826 51.7047 34.1437 50.7089Z" fill="#3D3E40"/>
<defs>
<linearGradient id="paint0_linear_4350_8447" x1="40" y1="4" x2="40" y2="76" gradientUnits="userSpaceOnUse">
<stop stop-color="#00FF75"/>
<stop offset="1" stop-color="#00FFA3"/>
</linearGradient>
</defs>
</svg>
