<svg width="80" height="80" viewBox="0 0 80 80" fill="none" xmlns="http://www.w3.org/2000/svg">
<g clip-path="url(#clip0_4350_8458)">
<rect x="2" y="14" width="76" height="51.4839" rx="9.80645" fill="white"/>
<path d="M59.6738 47.0749H60.6637L60.3337 46.1417C59.9032 44.9241 58.7426 44.0501 57.375 44.0501H55.75C55.7201 44.0501 55.6915 44.0382 55.6704 44.0171C55.6493 43.996 55.6374 43.9674 55.6374 43.9375C55.6374 43.9076 55.6493 43.879 55.6704 43.8579C55.6915 43.8368 55.7201 43.8249 55.75 43.8249H62.25C62.2799 43.8249 62.3085 43.8368 62.3296 43.8579C62.3507 43.879 62.3626 43.9076 62.3626 43.9375C62.3626 43.9674 62.3507 43.996 62.3296 44.0171C62.3085 44.0382 62.2799 44.0501 62.25 44.0501H60.625H59.219L60.0665 45.1719C60.3658 45.568 60.5721 46.0265 60.6701 46.5132L60.7832 47.0749H61.3563H62.25C62.2799 47.0749 62.3085 47.0868 62.3296 47.1079C62.3507 47.129 62.3626 47.1576 62.3626 47.1875C62.3626 47.2174 62.3507 47.246 62.3296 47.2671C62.3085 47.2882 62.2799 47.3001 62.25 47.3001H61.3563H60.7848L60.6705 47.86C60.5247 48.5743 60.1507 49.2219 59.6048 49.7051C59.059 50.1884 58.3709 50.4811 57.6442 50.5393L56.1345 50.6602L57.2048 51.7316L59.079 53.608L59.0878 53.6168L59.097 53.6254C59.1081 53.6357 59.1169 53.6481 59.1231 53.6619C59.1293 53.6758 59.1326 53.6907 59.1328 53.7058C59.1331 53.7209 59.1303 53.7359 59.1247 53.7499C59.119 53.7639 59.1106 53.7767 59.0999 53.7874C59.0892 53.7981 59.0764 53.8065 59.0624 53.8122C59.0484 53.8178 59.0334 53.8206 59.0183 53.8203C59.0032 53.8201 58.9883 53.8167 58.9745 53.8106C58.9606 53.8044 58.9482 53.7956 58.9379 53.7845L58.9295 53.7755L58.9208 53.7667L55.6711 50.5171C55.6553 50.5013 55.6446 50.4813 55.6403 50.4594C55.636 50.4376 55.6382 50.415 55.6467 50.3944L55 50.1267L55.6467 50.3944C55.6552 50.3739 55.6696 50.3563 55.6881 50.3439C55.7066 50.3316 55.7284 50.3249 55.7506 50.3249H57.3748C57.3749 50.3249 57.3749 50.3249 57.375 50.3249C58.0239 50.3251 58.6569 50.124 59.1867 49.7495C59.7167 49.3749 60.1174 48.8452 60.3337 48.2333L60.6637 47.3001H59.6738H55.75C55.7201 47.3001 55.6915 47.2882 55.6704 47.2671C55.6493 47.246 55.6374 47.2174 55.6374 47.1875C55.6374 47.1576 55.6493 47.129 55.6704 47.1079C55.6915 47.0868 55.7201 47.0749 55.75 47.0749H59.6738ZM59 36.7376C52.7797 36.7376 47.7376 41.7797 47.7376 48C47.7376 54.2203 52.7797 59.2624 59 59.2624C65.2203 59.2624 70.2624 54.2203 70.2624 48C70.2624 41.7797 65.2203 36.7376 59 36.7376Z" fill="#00FF95" stroke="#3D3E40" stroke-width="1.39985"/>
<path d="M3.5 28H77" stroke="#3D3E40" stroke-width="9" stroke-linecap="round"/>
<path d="M12 56H22" stroke="#3D3E40" stroke-width="3" stroke-linecap="round"/>
<path d="M28 56H33" stroke="#3D3E40" stroke-width="3" stroke-linecap="round"/>
</g>
<rect x="2.75" y="14.75" width="74.5" height="49.9839" rx="9.05645" stroke="#3D3E40" stroke-width="1.5"/>
<defs>
<clipPath id="clip0_4350_8458">
<rect x="2" y="14" width="76" height="51.4839" rx="9.80645" fill="white"/>
</clipPath>
</defs>
</svg>
