<svg width="80" height="80" viewBox="0 0 80 80" fill="none" xmlns="http://www.w3.org/2000/svg">
<path d="M71.0596 31.3571L64.738 25.8267V10.9737C64.738 9.86024 63.8326 8.95634 62.7206 8.95634H45.4581L41.4447 5.44482C40.7675 4.85173 39.7453 4.85173 39.0681 5.44482L35.0547 8.95634H17.7908C16.6773 8.95634 15.7734 9.86167 15.7734 10.9737V25.8253L9.45185 31.3556C9.34349 31.4497 9.28076 31.5866 9.28076 31.7306V73.501C9.28076 73.7762 9.5046 74 9.77976 74H70.7302C71.0054 74 71.2292 73.7762 71.2292 73.501V31.732C71.2292 31.588 71.1665 31.4512 71.0581 31.3571H71.0596ZM67.2529 33.3331C67.2529 33.3331 67.2529 33.3331 64.738 34.8988L67.2529 33.3331ZM39.7239 6.19474C40.0262 5.92956 40.4838 5.92956 40.7861 6.19474L43.9412 8.95491H41.3207L36.5 9L39.7225 6.19332L39.7239 6.19474ZM10.2802 32.6359L34.5757 47.9324C34.6584 47.9837 34.7496 48.0093 34.8409 48.0093C35.0062 48.0093 35.1688 47.9267 35.2643 47.7755C35.4111 47.5417 35.3413 47.2338 35.1075 47.0869L16.7714 35.5444V10.9737C16.7714 10.4106 17.2291 9.95434 17.7908 9.95434H62.7206C63.2837 9.95434 63.74 10.412 63.74 10.9737V35.5444L43.0187 48.591L41.6173 47.3649C40.8417 46.6849 39.6697 46.6863 38.8941 47.3649L10.2802 72.4018V32.6359ZM70.2312 73.002H11.1085L39.5514 48.1148C39.9535 47.7641 40.5594 47.7641 40.96 48.1148L67.146 71.0274C67.3541 71.2085 67.6692 71.1885 67.8503 70.9804C68.0314 70.7736 68.0114 70.4571 67.8032 70.2761L43.8029 49.2754L70.2312 32.6359V73.002Z" fill="#3D3E40"/>
<path d="M67.2529 33.3331L69.8976 31.6679M67.2529 33.3331C67.2529 33.3331 67.2529 33.3331 64.738 34.8988L67.2529 33.3331ZM71.0596 31.3571L64.738 25.8267V10.9737C64.738 9.86024 63.8326 8.95634 62.7206 8.95634H45.4581L41.4447 5.44482C40.7675 4.85173 39.7453 4.85173 39.0681 5.44482L35.0547 8.95634H17.7908C16.6773 8.95634 15.7734 9.86167 15.7734 10.9737V25.8253L9.45185 31.3556C9.34349 31.4497 9.28076 31.5866 9.28076 31.7306V73.501C9.28076 73.7762 9.5046 74 9.77976 74H70.7302C71.0054 74 71.2292 73.7762 71.2292 73.501V31.732C71.2292 31.588 71.1665 31.4512 71.0581 31.3571H71.0596ZM39.7239 6.19474C40.0262 5.92956 40.4838 5.92956 40.7861 6.19474L43.9412 8.95491H41.3207L36.5 9L39.7225 6.19332L39.7239 6.19474ZM10.2802 32.6359L34.5757 47.9324C34.6584 47.9837 34.7496 48.0093 34.8409 48.0093C35.0062 48.0093 35.1688 47.9266 35.2643 47.7755C35.4111 47.5417 35.3413 47.2338 35.1075 47.0869L16.7714 35.5444V10.9737C16.7714 10.4106 17.2291 9.95434 17.7908 9.95434H62.7206C63.2837 9.95434 63.74 10.412 63.74 10.9737V35.5444L43.0187 48.591L41.6173 47.3649C40.8417 46.6849 39.6697 46.6863 38.8941 47.3649L10.2802 72.4018V32.6359ZM70.2312 73.002H11.1085L39.5514 48.1148C39.9535 47.7641 40.5594 47.7641 40.96 48.1148L67.146 71.0274C67.3541 71.2085 67.6692 71.1885 67.8503 70.9804C68.0314 70.7736 68.0114 70.4571 67.8032 70.2761L43.8029 49.2754L70.2312 32.6359V73.002Z" stroke="#3D3E40" stroke-width="0.3"/>
<path d="M53.7245 39.2842C53.7245 39.009 53.5006 38.7852 53.2255 38.7852H27.2861C27.011 38.7852 26.7871 39.009 26.7871 39.2842C26.7871 39.5593 27.011 39.7832 27.2861 39.7832H53.2255C53.5006 39.7832 53.7245 39.5593 53.7245 39.2842Z" fill="#3D3E40" stroke="#3D3E40" stroke-width="0.3"/>
<path d="M27.2861 35.4062H53.2255C53.5006 35.4062 53.7245 35.1824 53.7245 34.9072C53.7245 34.632 53.5006 34.4082 53.2255 34.4082H27.2861C27.011 34.4082 26.7871 34.632 26.7871 34.9072C26.7871 35.1824 27.011 35.4062 27.2861 35.4062Z" fill="#3D3E40" stroke="#3D3E40" stroke-width="0.3"/>
<path d="M35.9236 16C33.757 16 32 17.7759 32 19.9668C32 21.7355 32.6866 25.9331 39.4454 30.1764C39.5664 30.2517 39.7054 30.2914 39.8471 30.2914C39.9889 30.2914 40.1278 30.2517 40.2489 30.1764C47.0077 25.9331 47.6943 21.7355 47.6943 19.9668C47.6943 17.7759 45.9373 16 43.7707 16C41.6041 16 39.8471 18.4041 39.8471 18.4041C39.8471 18.4041 38.0902 16 35.9236 16Z" fill="#00FF95" stroke="#3D3E40" stroke-width="1.03063" stroke-linecap="round" stroke-linejoin="round"/>
<path d="M36.6108 22.584C36.9738 23.9942 38.254 25.0363 39.7775 25.0363C41.3011 25.0363 42.5813 23.9942 42.9442 22.584" stroke="#3D3E40" stroke-width="1.03063" stroke-linecap="round" stroke-linejoin="round"/>
</svg>
