<svg width="2880" height="537" viewBox="0 0 2880 537" fill="none" xmlns="http://www.w3.org/2000/svg">
<g clip-path="url(#clip0_4489_16553)">
<path d="M271.293 474.723L274.286 471.288L270.862 474.292C270.666 474.463 270.415 474.556 270.155 474.556C269.895 474.556 269.644 474.463 269.448 474.292L266.024 471.288L269.017 474.723C269.191 474.917 269.287 475.169 269.287 475.43C269.287 475.691 269.191 475.942 269.017 476.137L266.013 479.561L269.448 476.567C269.641 476.391 269.893 476.293 270.155 476.293C270.417 476.293 270.669 476.391 270.862 476.567L274.297 479.561L271.248 476.181C271.068 475.978 270.972 475.714 270.981 475.443C270.989 475.172 271.1 474.914 271.293 474.723Z" fill="#4A5056"/>
<path d="M234.037 429.183L237.03 425.748L233.606 428.752C233.409 428.924 233.157 429.02 232.895 429.022C232.634 429.024 232.381 428.932 232.181 428.763L228.757 425.759L231.761 429.183C231.932 429.379 232.025 429.63 232.025 429.89C232.025 430.15 231.932 430.401 231.761 430.597L228.757 434.021L232.192 431.027C232.387 430.854 232.638 430.758 232.899 430.758C233.16 430.758 233.411 430.854 233.606 431.027L237.03 434.032L234.025 430.608C233.854 430.41 233.76 430.156 233.762 429.893C233.764 429.631 233.862 429.378 234.037 429.183Z" fill="#4A5056"/>
<path d="M298 450.666L295.007 454.101L298.431 451.097C298.626 450.923 298.877 450.827 299.138 450.827C299.399 450.827 299.65 450.923 299.845 451.097L303.28 454.09L300.276 450.666C300.105 450.47 300.011 450.219 300.011 449.959C300.011 449.699 300.105 449.448 300.276 449.252L303.28 445.828L299.845 448.822C299.65 448.995 299.399 449.091 299.138 449.091C298.877 449.091 298.626 448.995 298.431 448.822L295.007 445.817L298 449.252C298.177 449.445 298.275 449.697 298.275 449.959C298.275 450.221 298.177 450.473 298 450.666Z" fill="#4A5056"/>
<path d="M236.919 463.943L242.188 457.923L236.146 463.169C235.801 463.468 235.358 463.632 234.902 463.63C234.445 463.628 234.004 463.46 233.661 463.158L227.641 457.89L232.91 463.909C233.208 464.246 233.376 464.678 233.384 465.127C233.392 465.577 233.239 466.014 232.954 466.362L227.708 472.403L233.727 467.135C234.072 466.831 234.516 466.664 234.975 466.664C235.435 466.664 235.878 466.831 236.224 467.135L242.243 472.403L236.975 466.384C236.678 466.049 236.51 465.62 236.5 465.173C236.49 464.726 236.638 464.29 236.919 463.943Z" fill="#4A5056"/>
<path d="M279.367 431.281L274.098 437.301L280.118 432.033C280.46 431.732 280.9 431.566 281.355 431.566C281.81 431.566 282.25 431.732 282.592 432.033L288.623 437.312L283.343 431.281C283.044 430.936 282.881 430.494 282.883 430.037C282.885 429.58 283.052 429.139 283.354 428.796L288.579 422.821L282.559 428.089C282.214 428.393 281.77 428.56 281.311 428.56C280.851 428.56 280.408 428.393 280.063 428.089L274.043 422.821L279.311 428.84C279.608 429.175 279.776 429.604 279.786 430.051C279.796 430.498 279.648 430.934 279.367 431.281Z" fill="#4A5056"/>
<path d="M281.73 449.352L262.291 448.07C261.184 447.979 260.147 447.499 259.362 446.714C258.577 445.929 258.096 444.891 258.005 443.785L256.724 424.345L255.42 443.785C255.351 444.899 254.878 445.949 254.089 446.739C253.299 447.528 252.249 448.002 251.135 448.07L231.695 449.374L251.135 450.655C252.241 450.746 253.279 451.227 254.064 452.012C254.848 452.797 255.329 453.835 255.42 454.941L256.713 474.392L258.005 454.941C258.096 453.835 258.577 452.797 259.362 452.012C260.147 451.227 261.184 450.746 262.291 450.655L281.73 449.352Z" fill="#4A5056"/>
<path opacity="0.5" d="M1819.64 308.715L1817.65 313.789L1812.28 315.667L1817.65 317.545L1819.64 322.619L1821.63 317.545L1827 315.667L1821.63 313.789L1819.64 308.715Z" fill="#D7D4CF"/>
<ellipse opacity="0.5" cx="1.82374" cy="1.72329" rx="1.82374" ry="1.72329" transform="matrix(-0.9978 0.0663014 0.0742981 0.997236 221.174 96.2451)" fill="#D7D4CF"/>
<path opacity="0.5" d="M1204.93 241.355C1205.03 241.354 1205.13 241.329 1205.2 241.282C1205.28 241.236 1205.33 241.171 1205.35 241.1L1207.18 233.855L1213.73 232.547C1213.82 232.528 1213.9 232.489 1213.96 232.435C1214.01 232.381 1214.04 232.315 1214.04 232.247C1214.04 232.179 1214.01 232.114 1213.96 232.059C1213.9 232.005 1213.82 231.966 1213.73 231.947L1207.18 230.639L1205.35 223.394C1205.34 223.318 1205.29 223.248 1205.21 223.197C1205.13 223.146 1205.03 223.117 1204.92 223.117C1204.82 223.117 1204.72 223.146 1204.64 223.197C1204.56 223.248 1204.51 223.318 1204.5 223.394L1202.67 230.639L1196.12 231.947C1196.03 231.966 1195.95 232.005 1195.89 232.059C1195.84 232.114 1195.81 232.179 1195.81 232.247C1195.81 232.315 1195.84 232.381 1195.89 232.435C1195.95 232.489 1196.03 232.528 1196.12 232.547L1202.67 233.855L1204.5 241.1C1204.52 241.173 1204.57 241.238 1204.65 241.285C1204.73 241.331 1204.83 241.356 1204.93 241.355ZM1212.01 232.247L1206.69 233.309C1206.61 233.324 1206.54 233.355 1206.49 233.398C1206.43 233.441 1206.4 233.494 1206.38 233.551L1204.93 239.32L1203.48 233.551C1203.46 233.494 1203.42 233.441 1203.37 233.398C1203.32 233.355 1203.25 233.324 1203.17 233.309L1197.85 232.247L1203.17 231.185C1203.25 231.17 1203.32 231.139 1203.37 231.097C1203.42 231.054 1203.46 231 1203.48 230.943L1204.93 225.174L1206.38 230.943C1206.4 231 1206.43 231.054 1206.49 231.097C1206.54 231.139 1206.61 231.17 1206.69 231.185L1212.01 232.247Z" fill="#D7D4CF"/>
<path opacity="0.5" d="M196.125 318.238C196.225 318.237 196.322 318.211 196.399 318.165C196.476 318.119 196.528 318.054 196.547 317.983L198.372 310.738L204.928 309.43C205.017 309.411 205.096 309.372 205.152 309.318C205.208 309.263 205.238 309.198 205.238 309.13C205.238 309.062 205.208 308.996 205.152 308.942C205.096 308.888 205.017 308.849 204.928 308.83L198.372 307.522L196.547 300.277C196.535 300.201 196.485 300.13 196.406 300.079C196.327 300.028 196.225 300 196.12 300C196.014 300 195.912 300.028 195.833 300.079C195.754 300.13 195.704 300.201 195.692 300.277L193.868 307.522L187.311 308.83C187.222 308.849 187.143 308.888 187.087 308.942C187.031 308.996 187.001 309.062 187.001 309.13C187.001 309.198 187.031 309.263 187.087 309.318C187.143 309.372 187.222 309.411 187.311 309.43L193.868 310.738L195.692 317.983C195.711 318.056 195.766 318.121 195.845 318.168C195.924 318.214 196.023 318.239 196.125 318.238ZM203.206 309.13L197.887 310.192C197.809 310.207 197.739 310.238 197.685 310.281C197.63 310.323 197.594 310.377 197.579 310.434L196.125 316.203L194.671 310.434C194.657 310.377 194.62 310.323 194.566 310.281C194.511 310.238 194.441 310.207 194.364 310.192L189.044 309.13L194.364 308.068C194.441 308.053 194.511 308.022 194.566 307.979C194.62 307.936 194.657 307.883 194.671 307.826L196.125 302.057L197.579 307.826C197.594 307.883 197.63 307.936 197.685 307.979C197.739 308.022 197.809 308.053 197.887 308.068L203.206 309.13Z" fill="#D7D4CF"/>
<path opacity="0.5" d="M857.449 294.051L859.219 288.67L864.002 286.679L859.219 284.688L857.449 279.307L855.679 284.688L850.896 286.679L855.679 288.67L857.449 294.051Z" fill="#D7D4CF"/>
<ellipse cx="1.97572" cy="1.8669" rx="1.97572" ry="1.8669" transform="matrix(0.9978 -0.0663014 -0.0742981 -0.997236 1589.75 160.608)" fill="#D7D4CF"/>
<circle cx="1382.29" cy="206.399" r="2.4" fill="#00FF95" stroke="#4A5056" stroke-width="1.2"/>
<circle cx="1341.08" cy="34.0791" r="5.16728" fill="#00FF95" stroke="#4A5056" stroke-width="1.82374"/>
<circle cx="2232" cy="454" r="3" fill="#00FF95"/>
<ellipse opacity="0.9" cx="2.10677" cy="1.99073" rx="2.10677" ry="1.99073" transform="matrix(-0.9978 0.0663014 0.0742981 0.997236 733.205 178)" fill="#00FF95"/>
<path opacity="0.5" d="M491.447 11.0068L492.649 7.35485L495.895 6.00349L492.649 4.65213L491.447 1.00014L490.246 4.65213L487 6.00349L490.246 7.35485L491.447 11.0068Z" fill="#D7D4CF"/>
<path opacity="0.5" d="M366.447 213.007L368.729 206.07L374.895 203.503L368.729 200.937L366.447 194L364.166 200.937L358 203.503L364.166 206.07L366.447 213.007Z" fill="#D7D4CF"/>
<ellipse cx="1.25297" cy="1.18395" rx="1.25297" ry="1.18395" transform="matrix(0.9978 -0.0663014 -0.0742981 -0.997236 616.176 243.528)" fill="#D7D4CF"/>
<ellipse cx="1.25297" cy="1.18395" rx="1.25297" ry="1.18395" transform="matrix(0.9978 -0.0663014 -0.0742981 -0.997236 901.176 87.5276)" fill="#D7D4CF"/>
<g opacity="0.9">
<path d="M609.424 422.683C609.424 422.683 609.424 422.682 609.424 422.681L609.322 422.667L608.241 422.515L608.211 422.5L608.209 422.51L608.186 422.507L608.186 422.508L608.209 422.511L608.197 422.584L609.142 423.04C609.202 423.069 609.261 423.098 609.32 423.126L608.134 422.947L608.134 422.947L609.328 423.13C609.338 423.135 609.348 423.14 609.359 423.145L609.36 423.135M609.36 423.135C609.36 423.134 609.36 423.133 609.36 423.132L609.36 423.135ZM520.421 389.073C515.753 387.734 510.091 386.203 504.344 384.868L504.241 385.369C508.597 386.149 513.932 387.342 520.421 389.073Z" fill="#B3B0AE" stroke="#4A5056" stroke-width="3.03957"/>
<mask id="path-17-inside-1_4489_16553" fill="white">
<path d="M512.344 438.773C512.043 440.591 510.32 441.824 508.502 441.523C506.684 441.222 505.45 439.499 505.751 437.681C506.052 435.863 507.776 434.629 509.593 434.93C511.411 435.231 512.645 436.955 512.344 438.773ZM507.509 437.972C507.369 438.82 507.945 439.625 508.793 439.765C509.641 439.906 510.446 439.33 510.586 438.481C510.727 437.633 510.151 436.829 509.302 436.688C508.454 436.548 507.65 437.124 507.509 437.972Z"/>
</mask>
<path d="M512.344 438.773C512.043 440.591 510.32 441.824 508.502 441.523C506.684 441.222 505.45 439.499 505.751 437.681C506.052 435.863 507.776 434.629 509.593 434.93C511.411 435.231 512.645 436.955 512.344 438.773ZM507.509 437.972C507.369 438.82 507.945 439.625 508.793 439.765C509.641 439.906 510.446 439.33 510.586 438.481C510.727 437.633 510.151 436.829 509.302 436.688C508.454 436.548 507.65 437.124 507.509 437.972Z" fill="#B3B0AE"/>
<path d="M515.343 439.269C514.768 442.743 511.479 445.097 508.005 444.522L508.998 438.525C509.16 438.551 509.319 438.438 509.346 438.276L515.343 439.269ZM508.005 444.522C504.531 443.947 502.177 440.659 502.752 437.184L508.75 438.177C508.723 438.339 508.837 438.498 508.998 438.525L508.005 444.522ZM502.752 437.184C503.328 433.71 506.616 431.356 510.09 431.931L509.097 437.929C508.935 437.902 508.777 438.016 508.75 438.177L502.752 437.184ZM510.09 431.931C513.564 432.507 515.918 435.795 515.343 439.269L509.346 438.276C509.372 438.114 509.259 437.956 509.097 437.929L510.09 431.931ZM510.508 438.469C510.642 437.661 510.097 436.9 509.289 436.766L508.296 442.764C505.792 442.349 504.096 439.98 504.511 437.476L510.508 438.469ZM509.289 436.766C508.482 436.633 507.721 437.177 507.587 437.985L513.585 438.978C513.17 441.482 510.801 443.179 508.296 442.764L509.289 436.766ZM507.587 437.985C507.454 438.793 507.998 439.553 508.806 439.687L509.799 433.69C512.303 434.104 514 436.473 513.585 438.978L507.587 437.985ZM508.806 439.687C509.614 439.821 510.374 439.276 510.508 438.469L504.511 437.476C504.925 434.971 507.294 433.275 509.799 433.69L508.806 439.687Z" fill="#4A5056" mask="url(#path-17-inside-1_4489_16553)"/>
<mask id="path-19-inside-2_4489_16553" fill="white">
<path d="M512.903 375.416C512.461 378.083 509.933 379.892 507.267 379.451C504.601 379.009 502.791 376.482 503.233 373.815C503.674 371.149 506.202 369.339 508.868 369.781C511.535 370.222 513.344 372.75 512.903 375.416ZM504.991 374.106C504.71 375.803 505.862 377.412 507.558 377.693C509.255 377.974 510.864 376.822 511.145 375.125C511.425 373.429 510.274 371.82 508.577 371.539C506.88 371.258 505.272 372.41 504.991 374.106Z"/>
</mask>
<path d="M512.903 375.416C512.461 378.083 509.933 379.892 507.267 379.451C504.601 379.009 502.791 376.482 503.233 373.815C503.674 371.149 506.202 369.339 508.868 369.781C511.535 370.222 513.344 372.75 512.903 375.416ZM504.991 374.106C504.71 375.803 505.862 377.412 507.558 377.693C509.255 377.974 510.864 376.822 511.145 375.125C511.425 373.429 510.274 371.82 508.577 371.539C506.88 371.258 505.272 372.41 504.991 374.106Z" fill="#B3B0AE"/>
<path d="M515.902 375.913C515.186 380.235 511.093 383.165 506.771 382.45L507.764 376.452C508.774 376.619 509.737 375.93 509.904 374.92L515.902 375.913ZM506.771 382.45C502.448 381.734 499.518 377.641 500.234 373.319L506.231 374.312C506.064 375.322 506.754 376.285 507.764 376.452L506.771 382.45ZM500.234 373.319C500.95 368.996 505.042 366.066 509.365 366.782L508.372 372.78C507.362 372.612 506.399 373.302 506.231 374.312L500.234 373.319ZM509.365 366.782C513.687 367.498 516.617 371.59 515.902 375.913L509.904 374.92C510.071 373.91 509.382 372.947 508.372 372.78L509.365 366.782ZM507.99 374.603C507.987 374.617 507.988 374.625 507.99 374.63C507.992 374.638 507.996 374.649 508.004 374.661C508.013 374.673 508.022 374.681 508.029 374.685C508.034 374.688 508.041 374.692 508.055 374.694L507.062 380.691C503.709 380.136 501.437 376.963 501.992 373.61L507.99 374.603ZM508.055 374.694C508.069 374.696 508.077 374.695 508.082 374.694C508.09 374.692 508.101 374.687 508.113 374.679C508.125 374.671 508.132 374.662 508.137 374.655C508.14 374.65 508.143 374.643 508.146 374.629L514.143 375.622C513.588 378.975 510.415 381.247 507.062 380.691L508.055 374.694ZM508.146 374.629C508.148 374.614 508.147 374.607 508.146 374.601C508.144 374.593 508.139 374.582 508.131 374.571C508.123 374.559 508.113 374.551 508.107 374.547C508.102 374.544 508.095 374.54 508.081 374.538L509.074 368.54C512.426 369.095 514.698 372.269 514.143 375.622L508.146 374.629ZM508.081 374.538C508.066 374.535 508.059 374.536 508.053 374.538C508.045 374.54 508.034 374.544 508.022 374.553C508.011 374.561 508.003 374.57 507.999 374.577C507.995 374.582 507.992 374.589 507.99 374.603L501.992 373.61C502.547 370.257 505.721 367.985 509.074 368.54L508.081 374.538Z" fill="#4A5056" mask="url(#path-19-inside-2_4489_16553)"/>
<mask id="path-21-inside-3_4489_16553" fill="white">
<path d="M611.57 453.168C611.931 450.987 614 449.506 616.181 449.867C618.362 450.228 619.843 452.297 619.482 454.478C619.12 456.659 617.052 458.14 614.871 457.779C612.69 457.417 611.209 455.349 611.57 453.168ZM617.723 454.186C617.924 452.975 617.101 451.825 615.889 451.625C614.678 451.424 613.528 452.247 613.328 453.459C613.127 454.67 613.95 455.82 615.162 456.02C616.373 456.221 617.523 455.398 617.723 454.186Z"/>
</mask>
<path d="M611.57 453.168C611.931 450.987 614 449.506 616.181 449.867C618.362 450.228 619.843 452.297 619.482 454.478C619.12 456.659 617.052 458.14 614.871 457.779C612.69 457.417 611.209 455.349 611.57 453.168ZM617.723 454.186C617.924 452.975 617.101 451.825 615.889 451.625C614.678 451.424 613.528 452.247 613.328 453.459C613.127 454.67 613.95 455.82 615.162 456.02C616.373 456.221 617.523 455.398 617.723 454.186Z" fill="#B3B0AE"/>
<path d="M608.571 452.671C609.206 448.834 612.84 446.233 616.677 446.868L615.684 452.865C615.159 452.779 614.655 453.139 614.568 453.664L608.571 452.671ZM616.677 446.868C620.514 447.503 623.116 451.137 622.48 454.974L616.483 453.981C616.57 453.456 616.209 452.952 615.684 452.865L616.677 446.868ZM622.48 454.974C621.845 458.811 618.211 461.413 614.374 460.777L615.367 454.78C615.892 454.867 616.396 454.506 616.483 453.981L622.48 454.974ZM614.374 460.777C610.537 460.142 607.936 456.508 608.571 452.671L614.568 453.664C614.481 454.189 614.842 454.693 615.367 454.78L614.374 460.777ZM614.725 453.69C614.651 454.135 614.948 454.55 615.393 454.624L616.386 448.626C619.254 449.101 621.197 451.815 620.722 454.683L614.725 453.69ZM615.393 454.624C615.838 454.697 616.253 454.4 616.327 453.955L610.329 452.962C610.804 450.095 613.518 448.151 616.386 448.626L615.393 454.624ZM616.327 453.955C616.4 453.51 616.103 453.095 615.658 453.022L614.665 459.019C611.798 458.544 609.854 455.83 610.329 452.962L616.327 453.955ZM615.658 453.022C615.213 452.948 614.798 453.245 614.725 453.69L620.722 454.683C620.247 457.551 617.533 459.494 614.665 459.019L615.658 453.022Z" fill="#4A5056" mask="url(#path-21-inside-3_4489_16553)"/>
<mask id="path-23-inside-4_4489_16553" fill="white">
<path d="M623.327 420.344C623.728 417.921 626.027 416.275 628.45 416.676C630.874 417.078 632.519 419.376 632.118 421.8C631.717 424.223 629.418 425.869 626.995 425.467C624.571 425.066 622.926 422.768 623.327 420.344ZM630.36 421.509C630.6 420.055 629.613 418.675 628.159 418.435C626.705 418.194 625.326 419.181 625.085 420.635C624.844 422.089 625.832 423.469 627.286 423.709C628.74 423.95 630.119 422.963 630.36 421.509Z"/>
</mask>
<path d="M623.327 420.344C623.728 417.921 626.027 416.275 628.45 416.676C630.874 417.078 632.519 419.376 632.118 421.8C631.717 424.223 629.418 425.869 626.995 425.467C624.571 425.066 622.926 422.768 623.327 420.344ZM630.36 421.509C630.6 420.055 629.613 418.675 628.159 418.435C626.705 418.194 625.326 419.181 625.085 420.635C624.844 422.089 625.832 423.469 627.286 423.709C628.74 423.95 630.119 422.963 630.36 421.509Z" fill="#00FF95"/>
<path d="M620.328 419.848C621.004 415.768 624.867 413.002 628.947 413.678L627.954 419.675C627.186 419.548 626.453 420.073 626.326 420.841L620.328 419.848ZM628.947 413.678C633.027 414.353 635.792 418.216 635.117 422.296L629.119 421.303C629.246 420.536 628.721 419.802 627.954 419.675L628.947 413.678ZM635.117 422.296C634.441 426.376 630.578 429.142 626.498 428.466L627.491 422.469C628.259 422.596 628.992 422.071 629.119 421.303L635.117 422.296ZM626.498 428.466C622.418 427.791 619.653 423.928 620.328 419.848L626.326 420.841C626.199 421.608 626.724 422.342 627.491 422.469L626.498 428.466ZM627.361 421.012C627.328 421.214 627.46 421.4 627.663 421.433L628.656 415.436C631.766 415.951 633.873 418.895 633.358 422.005L627.361 421.012ZM627.663 421.433C627.865 421.467 628.05 421.334 628.084 421.132L622.086 420.139C622.601 417.029 625.545 414.921 628.656 415.436L627.663 421.433ZM628.084 421.132C628.117 420.93 627.984 420.744 627.782 420.711L626.789 426.708C623.679 426.193 621.571 423.249 622.086 420.139L628.084 421.132ZM627.782 420.711C627.58 420.677 627.394 420.81 627.361 421.012L633.358 422.005C632.844 425.115 629.899 427.223 626.789 426.708L627.782 420.711Z" fill="#4A5056" mask="url(#path-23-inside-4_4489_16553)"/>
<path d="M539.916 415.507C541.391 415.751 542.792 414.748 543.036 413.273C543.28 411.799 542.277 410.398 540.802 410.154C539.328 409.91 537.927 410.913 537.683 412.387C537.439 413.861 538.442 415.262 539.916 415.507Z" fill="#00FF95" stroke="#4A5056" stroke-width="3.03957"/>
</g>
<path opacity="0.5" d="M2391.08 101.608C2391.15 101.564 2391.21 101.504 2391.24 101.437C2391.28 101.371 2391.29 101.302 2391.27 101.243L2389.43 95.2946L2393.53 91.5189C2393.58 91.4667 2393.62 91.4044 2393.64 91.3416C2393.65 91.2788 2393.65 91.2188 2393.62 91.1706C2393.59 91.1225 2393.54 91.0887 2393.47 91.0745C2393.41 91.0602 2393.34 91.0662 2393.27 91.0916L2388.03 93.0047L2383.59 88.6388C2383.55 88.5899 2383.48 88.5617 2383.4 88.5596C2383.32 88.5574 2383.24 88.5816 2383.16 88.6274C2383.09 88.6732 2383.03 88.7375 2383 88.808C2382.96 88.8785 2382.96 88.9504 2382.98 89.0099L2384.82 94.9587L2380.72 98.7344C2380.67 98.7867 2380.63 98.8489 2380.61 98.9117C2380.6 98.9745 2380.6 99.0345 2380.63 99.0827C2380.66 99.1309 2380.71 99.1646 2380.78 99.1789C2380.84 99.1931 2380.91 99.1871 2380.99 99.1617L2386.22 97.2486L2390.66 101.614C2390.71 101.658 2390.77 101.681 2390.85 101.68C2390.93 101.678 2391.01 101.653 2391.08 101.608ZM2392.17 92.0522L2388.84 95.1158C2388.8 95.1602 2388.76 95.2126 2388.74 95.2667C2388.72 95.3209 2388.72 95.3747 2388.73 95.4218L2390.2 100.159L2386.66 96.6832C2386.63 96.6487 2386.58 96.6267 2386.52 96.6198C2386.46 96.613 2386.4 96.6215 2386.34 96.6444L2382.09 98.1961L2385.41 95.1325C2385.46 95.0881 2385.5 95.0358 2385.52 94.9817C2385.54 94.9275 2385.54 94.8737 2385.53 94.8266L2384.06 90.0891L2387.6 93.5651C2387.63 93.5997 2387.68 93.6217 2387.74 93.6286C2387.8 93.6354 2387.86 93.6269 2387.92 93.604L2392.17 92.0522Z" fill="#D7D4CF"/>
<path d="M2136.81 77.8018C2127.07 90.8559 2129.73 109.377 2142.75 119.09C2149.25 123.937 2157.11 125.688 2164.57 124.604C2172.06 123.515 2179.14 119.569 2184.02 113.029C2193.76 99.9752 2191.1 81.4538 2178.08 71.7412C2165.07 62.0294 2146.55 64.7469 2136.81 77.8018ZM2169.01 94.9116L2188.22 92.12C2189.01 98.9903 2187.3 106.171 2182.84 112.147C2174.1 123.852 2157.95 126.806 2145.77 119.348L2163.52 116.768C2163.92 116.71 2164.2 116.336 2164.14 115.933C2164.08 115.529 2163.71 115.25 2163.31 115.309L2143.94 118.124C2143.84 118.051 2143.73 117.983 2143.63 117.908C2137.65 113.444 2133.98 107.018 2132.82 100.171L2144.46 98.4795C2144.86 98.4209 2145.14 98.0471 2145.08 97.6437C2145.03 97.2404 2144.65 96.9614 2144.25 97.0201L2132.61 98.7111C2132.26 95.6494 2132.41 92.5279 2133.07 89.4767L2152.35 86.6754C2152.75 86.6168 2153.03 86.243 2152.97 85.8396C2152.91 85.4363 2152.54 85.1573 2152.13 85.216L2133.45 87.9307C2134.36 84.6835 2135.86 81.5447 2137.99 78.6837C2142.63 72.47 2149.36 68.7205 2156.47 67.6863C2162.76 66.7726 2169.35 67.9843 2175.06 71.4828L2157.31 74.0626C2156.91 74.1213 2156.63 74.4951 2156.69 74.8984C2156.75 75.3018 2157.12 75.5807 2157.52 75.5221L2176.89 72.707C2177 72.7804 2177.1 72.848 2177.2 72.9231C2183.18 77.3874 2186.85 83.8127 2188.01 90.6599L2178.4 92.056L2168.8 93.4521C2168.39 93.5108 2168.12 93.8846 2168.17 94.2879C2168.23 94.6912 2168.61 94.9702 2169.01 94.9116Z" fill="#4A5056"/>
<path d="M2156.45 106.496C2156.51 106.9 2156.88 107.179 2157.29 107.12L2174.61 104.603C2175.01 104.544 2175.29 104.17 2175.23 103.767C2175.17 103.364 2174.8 103.085 2174.39 103.143L2157.08 105.66C2156.67 105.719 2156.39 106.093 2156.45 106.496Z" fill="#4A5056"/>
<path d="M2136.81 77.8018L2136.44 77.5273L2136.81 77.8018ZM2142.75 119.09L2142.47 119.458L2142.75 119.09ZM2184.02 113.029L2183.65 112.755L2184.02 113.029ZM2178.08 71.7412L2178.36 71.3733L2178.36 71.3733L2178.08 71.7412ZM2188.22 92.12L2188.67 92.0673L2188.62 91.5977L2188.15 91.6657L2188.22 92.12ZM2182.84 112.147L2183.21 112.422L2183.21 112.422L2182.84 112.147ZM2145.77 119.348L2145.7 118.894L2144.44 119.077L2145.53 119.74L2145.77 119.348ZM2143.94 118.124L2143.67 118.496L2143.82 118.605L2144 118.578L2143.94 118.124ZM2143.63 117.908L2143.91 117.54L2143.63 117.908ZM2132.82 100.171L2132.75 99.7169L2132.29 99.7845L2132.37 100.248L2132.82 100.171ZM2132.61 98.7111L2132.16 98.7639L2132.21 99.2334L2132.68 99.1654L2132.61 98.7111ZM2133.07 89.4767L2133 89.0224L2132.69 89.0681L2132.62 89.3789L2133.07 89.4767ZM2133.45 87.9307L2133.01 87.8075L2132.82 88.4864L2133.52 88.385L2133.45 87.9307ZM2137.99 78.6837L2137.63 78.4091L2137.63 78.4092L2137.99 78.6837ZM2175.06 71.4828L2175.13 71.9371L2176.39 71.7544L2175.3 71.0913L2175.06 71.4828ZM2176.89 72.707L2177.16 72.3354L2177.01 72.2258L2176.83 72.2527L2176.89 72.707ZM2177.2 72.9231L2176.93 73.291L2177.2 72.9231ZM2188.01 90.6599L2188.08 91.1142L2188.54 91.0466L2188.46 90.5835L2188.01 90.6599ZM2184.51 91.4499C2184.26 91.4864 2184.09 91.7193 2184.12 91.9702C2184.16 92.2211 2184.39 92.395 2184.64 92.3585L2184.51 91.4499ZM2187.47 91.9477L2187.92 91.8817L2187.79 90.9731L2187.34 91.0391L2187.47 91.9477ZM2136.44 77.5273C2126.55 90.7835 2129.25 109.593 2142.47 119.458L2143.02 118.722C2130.21 109.162 2127.59 90.9283 2137.18 78.0764L2136.44 77.5273ZM2142.47 119.458C2149.07 124.381 2157.06 126.159 2164.63 125.058L2164.5 124.149C2157.16 125.217 2149.42 123.493 2143.02 118.722L2142.47 119.458ZM2164.63 125.058C2172.24 123.953 2179.43 119.945 2184.39 113.304L2183.65 112.755C2178.85 119.192 2171.88 123.078 2164.5 124.149L2164.63 125.058ZM2184.39 113.304C2194.28 100.048 2191.58 81.2382 2178.36 71.3733L2177.81 72.1092C2190.62 81.6693 2193.24 99.9028 2183.65 112.755L2184.39 113.304ZM2178.36 71.3733C2165.14 61.5091 2146.34 64.2702 2136.44 77.5273L2137.18 78.0764C2146.77 65.2236 2165 62.5497 2177.81 72.1092L2178.36 71.3733ZM2169.08 95.3659L2188.28 92.5743L2188.15 91.6657L2168.94 94.4573L2169.08 95.3659ZM2187.76 92.1727C2188.54 98.9318 2186.86 105.995 2182.47 111.873L2183.21 112.422C2187.74 106.348 2189.48 99.0487 2188.67 92.0673L2187.76 92.1727ZM2182.47 111.873C2173.88 123.386 2157.99 126.291 2146.01 118.957L2145.53 119.74C2157.91 127.321 2174.33 124.317 2183.21 112.422L2182.47 111.873ZM2145.83 119.803L2163.58 117.223L2163.45 116.314L2145.7 118.894L2145.83 119.803ZM2163.58 117.223C2164.24 117.128 2164.69 116.521 2164.6 115.867L2163.69 115.999C2163.71 116.151 2163.61 116.292 2163.45 116.314L2163.58 117.223ZM2164.6 115.867C2164.5 115.212 2163.89 114.76 2163.24 114.855L2163.37 115.763C2163.53 115.741 2163.67 115.846 2163.69 115.999L2164.6 115.867ZM2163.24 114.855L2143.87 117.67L2144 118.578L2163.37 115.763L2163.24 114.855ZM2144.21 117.753C2144.15 117.712 2144.09 117.673 2144.05 117.639C2143.99 117.604 2143.95 117.572 2143.91 117.54L2143.36 118.276C2143.41 118.319 2143.47 118.358 2143.52 118.394C2143.58 118.431 2143.62 118.463 2143.67 118.496L2144.21 117.753ZM2143.91 117.54C2138.02 113.15 2134.41 106.831 2133.27 100.095L2132.37 100.248C2133.54 107.206 2137.27 113.738 2143.36 118.276L2143.91 117.54ZM2132.89 100.626L2144.53 98.9338L2144.39 98.0252L2132.75 99.7169L2132.89 100.626ZM2144.53 98.9338C2145.18 98.8387 2145.63 98.2319 2145.54 97.5777L2144.63 97.7098C2144.65 97.8622 2144.55 98.003 2144.39 98.0252L2144.53 98.9338ZM2145.54 97.5777C2145.44 96.9235 2144.84 96.4707 2144.18 96.5658L2144.31 97.4744C2144.47 97.4522 2144.61 97.5573 2144.63 97.7098L2145.54 97.5777ZM2144.18 96.5658L2132.55 98.2568L2132.68 99.1654L2144.31 97.4744L2144.18 96.5658ZM2133.07 98.6584C2132.72 95.6464 2132.86 92.5757 2133.52 89.5745L2132.62 89.3789C2131.95 92.4801 2131.8 95.6525 2132.16 98.7639L2133.07 98.6584ZM2133.14 89.931L2152.41 87.1297L2152.28 86.2211L2133 89.0224L2133.14 89.931ZM2152.41 87.1297C2153.07 87.0346 2153.52 86.4278 2153.42 85.7736L2152.51 85.9056C2152.54 86.0581 2152.43 86.1989 2152.28 86.2211L2152.41 87.1297ZM2153.42 85.7736C2153.33 85.1194 2152.72 84.6666 2152.07 84.7617L2152.2 85.6703C2152.35 85.6481 2152.49 85.7532 2152.51 85.9056L2153.42 85.7736ZM2152.07 84.7617L2133.39 87.4764L2133.52 88.385L2152.2 85.6703L2152.07 84.7617ZM2133.9 88.0539C2134.79 84.8597 2136.26 81.7725 2138.36 78.9583L2137.63 78.4092C2135.46 81.317 2133.93 84.5073 2133.01 87.8075L2133.9 88.0539ZM2138.36 78.9583C2142.92 72.8462 2149.54 69.158 2156.54 68.1406L2156.41 67.232C2149.18 68.2829 2142.34 72.0938 2137.63 78.4091L2138.36 78.9583ZM2156.54 68.1406C2162.73 67.2417 2169.2 68.4339 2174.82 71.8743L2175.3 71.0913C2169.49 67.5347 2162.8 66.3035 2156.41 67.232L2156.54 68.1406ZM2175 71.0285L2157.25 73.6083L2157.38 74.5169L2175.13 71.9371L2175 71.0285ZM2157.25 73.6083C2156.59 73.7034 2156.14 74.3102 2156.23 74.9645L2157.14 74.8324C2157.12 74.68 2157.23 74.5391 2157.38 74.5169L2157.25 73.6083ZM2156.23 74.9645C2156.33 75.6187 2156.94 76.0715 2157.59 75.9764L2157.46 75.0678C2157.31 75.0899 2157.16 74.9848 2157.14 74.8324L2156.23 74.9645ZM2157.59 75.9764L2176.96 73.1613L2176.83 72.2527L2157.46 75.0678L2157.59 75.9764ZM2176.62 73.0785C2176.68 73.1189 2176.74 73.1576 2176.79 73.1917C2176.84 73.2271 2176.88 73.2587 2176.93 73.291L2177.47 72.5551C2177.42 72.5124 2177.36 72.4727 2177.31 72.4372C2177.26 72.4003 2177.21 72.3685 2177.16 72.3354L2176.62 73.0785ZM2176.93 73.291C2182.81 77.6813 2186.42 84 2187.56 90.7363L2188.46 90.5835C2187.29 83.6255 2183.56 77.0934 2177.47 72.5551L2176.93 73.291ZM2168.73 92.9978C2168.08 93.0929 2167.63 93.6997 2167.72 94.3539L2168.63 94.2219C2168.61 94.0694 2168.71 93.9286 2168.86 93.9064L2168.73 92.9978ZM2167.72 94.3539C2167.82 95.0082 2168.42 95.461 2169.08 95.3659L2168.94 94.4573C2168.79 94.4794 2168.65 94.3743 2168.63 94.2219L2167.72 94.3539ZM2156 106.562C2156.09 107.217 2156.7 107.669 2157.35 107.574L2157.22 106.666C2157.07 106.688 2156.93 106.583 2156.91 106.43L2156 106.562ZM2157.35 107.574L2174.67 105.057L2174.54 104.149L2157.22 106.666L2157.35 107.574ZM2174.67 105.057C2175.33 104.962 2175.78 104.355 2175.68 103.701L2174.78 103.833C2174.8 103.986 2174.69 104.126 2174.54 104.149L2174.67 105.057ZM2175.68 103.701C2175.59 103.047 2174.98 102.594 2174.33 102.689L2174.46 103.598C2174.61 103.576 2174.75 103.681 2174.78 103.833L2175.68 103.701ZM2174.33 102.689L2157.01 105.206L2157.14 106.115L2174.46 103.598L2174.33 102.689ZM2157.01 105.206C2156.36 105.301 2155.9 105.908 2156 106.562L2156.91 106.43C2156.88 106.278 2156.99 106.137 2157.14 106.115L2157.01 105.206ZM2184.64 92.3585L2187.47 91.9477L2187.34 91.0391L2184.51 91.4499L2184.64 92.3585ZM2187.94 90.2056L2178.34 91.6017L2178.47 92.5103L2188.08 91.1142L2187.94 90.2056ZM2178.34 91.6017L2168.73 92.9978L2168.86 93.9064L2178.47 92.5103L2178.34 91.6017Z" fill="#4A5056"/>
<path d="M1999.38 477.344L2002.38 473.909L1998.95 476.913C1998.76 477.084 1998.5 477.177 1998.24 477.177C1997.98 477.177 1997.73 477.084 1997.54 476.913L1994.11 473.909L1997.11 477.344C1997.28 477.539 1997.38 477.79 1997.38 478.051C1997.38 478.312 1997.28 478.563 1997.11 478.758L1994.1 482.182L1997.54 479.189C1997.73 479.012 1997.98 478.914 1998.24 478.914C1998.51 478.914 1998.76 479.012 1998.95 479.189L2002.39 482.182L1999.34 478.802C1999.16 478.599 1999.06 478.335 1999.07 478.064C1999.08 477.793 1999.19 477.535 1999.38 477.344Z" fill="#4A5056"/>
<path d="M1962.13 431.804L1965.12 428.369L1961.7 431.373C1961.5 431.545 1961.25 431.641 1960.99 431.643C1960.72 431.645 1960.47 431.553 1960.27 431.384L1956.85 428.38L1959.85 431.804C1960.02 432 1960.12 432.251 1960.12 432.511C1960.12 432.771 1960.02 433.022 1959.85 433.218L1956.85 436.642L1960.28 433.649C1960.48 433.475 1960.73 433.379 1960.99 433.379C1961.25 433.379 1961.5 433.475 1961.7 433.649L1965.12 436.653L1962.12 433.229C1961.94 433.031 1961.85 432.777 1961.85 432.514C1961.85 432.252 1961.95 431.999 1962.13 431.804Z" fill="#4A5056"/>
<path d="M2026.09 453.287L2023.1 456.722L2026.52 453.718C2026.72 453.544 2026.97 453.449 2027.23 453.449C2027.49 453.449 2027.74 453.544 2027.93 453.718L2031.37 456.711L2028.37 453.287C2028.2 453.091 2028.1 452.84 2028.1 452.58C2028.1 452.321 2028.2 452.069 2028.37 451.873L2031.37 448.449L2027.93 451.443C2027.74 451.616 2027.49 451.712 2027.23 451.712C2026.97 451.712 2026.72 451.616 2026.52 451.443L2023.1 448.438L2026.09 451.873C2026.27 452.066 2026.36 452.319 2026.36 452.58C2026.36 452.842 2026.27 453.094 2026.09 453.287Z" fill="#4A5056"/>
<path d="M1965.01 466.564L1970.28 460.544L1964.24 465.791C1963.89 466.089 1963.45 466.253 1962.99 466.251C1962.53 466.249 1962.09 466.081 1961.75 465.78L1955.73 460.511L1961 466.531C1961.3 466.867 1961.47 467.299 1961.47 467.748C1961.48 468.198 1961.33 468.635 1961.04 468.983L1955.8 475.024L1961.82 469.756C1962.16 469.452 1962.61 469.285 1963.07 469.285C1963.52 469.285 1963.97 469.452 1964.31 469.756L1970.33 475.024L1965.06 469.005C1964.77 468.67 1964.6 468.241 1964.59 467.794C1964.58 467.347 1964.73 466.911 1965.01 466.564Z" fill="#4A5056"/>
<path d="M2007.46 433.903L2002.19 439.922L2008.21 434.654C2008.55 434.353 2008.99 434.187 2009.44 434.187C2009.9 434.187 2010.34 434.353 2010.68 434.654L2016.71 439.933L2011.43 433.903C2011.13 433.557 2010.97 433.115 2010.97 432.658C2010.97 432.201 2011.14 431.76 2011.44 431.417L2016.67 425.442L2010.65 430.71C2010.3 431.014 2009.86 431.181 2009.4 431.181C2008.94 431.181 2008.5 431.014 2008.15 430.71L2002.13 425.442L2007.4 431.462C2007.7 431.796 2007.87 432.225 2007.88 432.672C2007.89 433.119 2007.74 433.555 2007.46 433.903Z" fill="#4A5056"/>
<path d="M2009.82 451.973L1990.38 450.692C1989.27 450.6 1988.24 450.12 1987.45 449.335C1986.67 448.55 1986.19 447.512 1986.09 446.406L1984.81 426.966L1983.51 446.406C1983.44 447.52 1982.97 448.57 1982.18 449.36C1981.39 450.149 1980.34 450.623 1979.22 450.692L1959.78 451.995L1979.22 453.276C1980.33 453.367 1981.37 453.848 1982.15 454.633C1982.94 455.418 1983.42 456.456 1983.51 457.562L1984.8 477.013L1986.09 457.562C1986.19 456.456 1986.67 455.418 1987.45 454.633C1988.24 453.848 1989.27 453.367 1990.38 453.276L2009.82 451.973Z" fill="#4A5056"/>
<path opacity="0.5" d="M1691.88 534.726L1689.56 528.804L1689.44 528.52L1689.16 528.42L1683.01 526.271L1689.16 524.122L1689.44 524.022L1689.56 523.739L1691.88 517.816L1694.2 523.739L1694.31 524.022L1694.59 524.122L1700.74 526.271L1694.59 528.42L1694.31 528.52L1694.2 528.804L1691.88 534.726Z" stroke="#4A5056" stroke-width="1.32504"/>
<path opacity="0.5" d="M1273.51 475.946L1277.91 472.376L1283.01 473.285L1280.06 469.025L1281.48 463.542L1277.08 467.112L1271.98 466.202L1274.93 470.462L1273.51 475.946Z" fill="#D7D4CF"/>
<path opacity="0.5" d="M1736.12 488.238C1736.22 488.237 1736.32 488.211 1736.4 488.165C1736.47 488.119 1736.53 488.054 1736.55 487.983L1738.37 480.738L1744.93 479.43C1745.02 479.411 1745.09 479.372 1745.15 479.318C1745.21 479.263 1745.24 479.198 1745.24 479.13C1745.24 479.062 1745.21 478.996 1745.15 478.942C1745.09 478.888 1745.02 478.849 1744.93 478.83L1738.37 477.522L1736.55 470.277C1736.53 470.201 1736.48 470.13 1736.4 470.079C1736.33 470.028 1736.22 470 1736.12 470C1736.01 470 1735.91 470.028 1735.83 470.079C1735.75 470.13 1735.7 470.201 1735.69 470.277L1733.87 477.522L1727.31 478.83C1727.22 478.849 1727.14 478.888 1727.09 478.942C1727.03 478.996 1727 479.062 1727 479.13C1727 479.198 1727.03 479.263 1727.09 479.318C1727.14 479.372 1727.22 479.411 1727.31 479.43L1733.87 480.738L1735.69 487.983C1735.71 488.056 1735.76 488.121 1735.84 488.168C1735.92 488.214 1736.02 488.239 1736.12 488.238ZM1743.2 479.13L1737.88 480.192C1737.81 480.207 1737.74 480.238 1737.68 480.281C1737.63 480.323 1737.59 480.377 1737.58 480.434L1736.12 486.203L1734.67 480.434C1734.65 480.377 1734.62 480.323 1734.56 480.281C1734.51 480.238 1734.44 480.207 1734.36 480.192L1729.04 479.13L1734.36 478.068C1734.44 478.053 1734.51 478.022 1734.56 477.979C1734.62 477.936 1734.65 477.883 1734.67 477.826L1736.12 472.057L1737.58 477.826C1737.59 477.883 1737.63 477.936 1737.68 477.979C1737.74 478.022 1737.81 478.053 1737.88 478.068L1743.2 479.13Z" fill="#D7D4CF"/>
<path opacity="0.5" d="M812.716 443.095C812.837 443.186 812.977 443.244 813.112 443.259C813.248 443.274 813.37 443.246 813.459 443.177L822.335 436.144L831.43 440.617C831.555 440.677 831.686 440.702 831.803 440.688C831.92 440.675 832.017 440.624 832.08 440.542C832.142 440.461 832.167 440.354 832.149 440.237C832.132 440.12 832.074 440 831.983 439.895L825.302 432.274L829.789 421.875C829.844 421.773 829.849 421.642 829.801 421.508C829.753 421.374 829.656 421.246 829.529 421.148C829.402 421.051 829.254 420.991 829.112 420.979C828.97 420.968 828.845 421.006 828.76 421.087L819.883 428.12L810.789 423.647C810.664 423.587 810.533 423.562 810.415 423.576C810.298 423.589 810.201 423.641 810.139 423.722C810.076 423.803 810.052 423.91 810.069 424.027C810.087 424.144 810.145 424.264 810.235 424.369L816.917 431.99L812.43 442.389C812.386 442.494 812.391 442.623 812.443 442.752C812.496 442.881 812.592 443.002 812.716 443.095ZM829.635 438.668L822.256 435.04C822.149 434.986 822.036 434.959 821.931 434.96C821.826 434.961 821.733 434.991 821.662 435.047L814.593 440.647L818.164 432.365C818.2 432.283 818.205 432.185 818.179 432.083C818.153 431.981 818.097 431.88 818.017 431.79L812.597 425.607L819.976 429.235C820.083 429.288 820.196 429.316 820.301 429.315C820.406 429.313 820.499 429.283 820.57 429.228L827.639 423.628L824.068 431.909C824.032 431.992 824.027 432.089 824.053 432.191C824.079 432.293 824.135 432.395 824.215 432.485L829.635 438.668Z" fill="#D7D4CF"/>
<path opacity="0.5" d="M2090.35 118.09L2092.72 116.164L2095.47 116.654L2093.88 114.356L2094.65 111.397L2092.27 113.324L2089.52 112.833L2091.11 115.131L2090.35 118.09Z" fill="#D7D4CF"/>
<path opacity="0.5" d="M2524.97 440.603L2527.35 438.677L2530.1 439.168L2528.51 436.869L2529.27 433.911L2526.9 435.837L2524.15 435.346L2525.74 437.645L2524.97 440.603Z" fill="#FDFBF8"/>
<path opacity="0.5" d="M2765 158L2766.89 152.161L2772 150L2766.89 147.839L2765 142L2763.11 147.839L2758 150L2763.11 152.161L2765 158Z" fill="#FDFBF8"/>
</g>
<defs>
<clipPath id="clip0_4489_16553">
<rect width="2880" height="537" fill="white"/>
</clipPath>
</defs>
</svg>
