<svg width="67" height="74" viewBox="0 0 67 74" fill="none" xmlns="http://www.w3.org/2000/svg">
<path d="M39.5199 55.4987C28.0548 55.1756 26.462 44.0747 27.194 37.4165C27.2771 36.6608 27.8414 36.0583 28.5789 35.874C28.8617 35.8032 29.1643 35.7987 29.4484 35.8643C41.956 38.7499 43.3751 48.0445 42.4025 53.2344C42.2759 53.9102 41.8661 54.4903 41.316 54.9028C40.7982 55.2912 40.167 55.517 39.5199 55.4987Z" fill="#00FF95"/>
<mask id="path-2-inside-1_2331_887" fill="white">
<path fill-rule="evenodd" clip-rule="evenodd" d="M21.4476 3.00646L17.0859 6.42708V20.7617H21.4476V3.00646ZM51.1924 17.4694H58.8718L64.0043 72.0314L2.47887 72.0346L7.61136 17.4726H15.1174V21.7443C15.1174 22.2871 15.5574 22.7303 16.1034 22.7303H22.4338C22.9766 22.7303 23.4199 22.2903 23.4199 21.7443V17.4726H42.8934V21.7443C42.8934 22.2871 43.3334 22.7303 43.8794 22.7303H50.2099C50.7527 22.7303 51.1959 22.2903 51.1959 21.7443V17.4726L51.1924 17.4694ZM49.2236 6.42362L44.8619 3.00301V20.7548H49.2236L49.2203 6.42675L49.2236 6.42362ZM42.8931 7.70514H23.4195V15.497H42.8931V7.70514ZM42.8931 1.96881H23.4195V5.73304H42.8931V1.96881ZM21.7627 0.263354C21.9394 0.0995507 22.1739 -1.25461e-05 22.434 -1.25461e-05H43.876C44.1361 -1.25461e-05 44.3706 0.0995507 44.5473 0.263354L50.7429 5.12287C51.0127 5.29951 51.1893 5.60142 51.1893 5.9483V15.4968H59.7618C60.3014 15.4968 60.7414 15.9336 60.7478 16.4732L66.0602 72.9238C66.1083 73.4634 65.7101 73.942 65.1705 73.9902C65.1416 73.9934 65.1127 73.9934 65.0806 73.9934V73.9966L1.40012 73.9998C0.857319 73.9998 0.414106 73.5598 0.414106 73.0138C0.414106 72.9528 0.420531 72.8917 0.430165 72.8339L5.73927 16.3923C5.78423 15.8817 6.21461 15.4995 6.71566 15.4995V15.4963H15.1147V5.94777C15.1147 5.60089 15.2913 5.29899 15.5611 5.12234L21.7568 0.26283L21.7627 0.263354ZM42.8709 55.6089C42.9223 55.3969 42.9672 55.1818 43.0154 54.9666C44.1332 49.7121 43.8089 45.6331 41.1526 41.9779C38.8111 38.6022 34.79 36.2031 29.0955 34.777C28.649 34.6646 28.1897 34.5586 27.7112 34.459C27.1812 34.3466 26.6578 34.6871 26.5453 35.217C26.5356 35.2652 26.5292 35.3134 26.526 35.3616C26.1856 38.0338 26.0731 40.4523 26.1888 42.6106C26.4136 46.7507 27.4831 49.9914 29.3909 52.3359C31.3309 54.7158 34.0963 56.1387 37.6937 56.6044C38.8115 56.7489 40.003 56.8003 41.2685 56.7586C42.3091 58.6375 43.0254 60.42 43.4237 62.1126C43.5457 62.6426 44.0757 62.9702 44.6056 62.8481C45.1356 62.7261 45.4632 62.1961 45.3411 61.6662C44.8882 59.7488 44.0657 57.7287 42.8709 55.6089ZM34.1315 47.3447C33.7621 46.9497 33.7814 46.3298 34.1764 45.9605C34.5715 45.5911 35.1914 45.6104 35.5607 46.0054C37.8893 48.4977 39.8196 50.8778 41.3484 53.1517C41.9715 49.0888 41.3645 45.7356 39.5338 43.0959C37.475 40.1282 33.836 37.9956 28.6138 36.6883L28.3473 36.6241C28.116 38.7728 28.0486 40.7352 28.1449 42.5146C28.3473 46.2242 29.2691 49.0859 30.9103 51.0994C32.5194 53.0746 34.8608 54.2631 37.9346 54.6581C38.6155 54.7448 39.3349 54.7962 40.0897 54.8058C38.5673 52.4548 36.5792 49.9656 34.1254 47.3416L34.1315 47.3447ZM37.218 60.8153L33.8777 57.6966C33.4795 57.3272 32.8596 57.3497 32.4902 57.7479C32.1209 58.1462 32.1433 58.7661 32.5416 59.1354L34.398 60.8666C34.0287 60.8923 33.6465 60.9052 33.245 60.9052C28.7838 60.9052 24.7432 59.0969 21.8202 56.1742C18.8975 53.2514 17.0892 49.2109 17.0892 44.7494C17.0892 40.2878 18.8975 36.2476 21.8202 33.3246C24.743 30.4018 28.7835 28.5936 33.245 28.5936C37.7063 28.5936 41.7468 30.4018 44.6698 33.3246C47.5926 36.2473 49.4008 40.2878 49.4008 44.7494C49.4008 45.7675 49.3109 46.7535 49.1342 47.701C48.9544 48.671 48.6846 49.6216 48.3345 50.537C48.1418 51.0445 48.3955 51.613 48.903 51.8057C49.4105 51.9984 49.979 51.7447 50.1717 51.2372C50.5603 50.2255 50.8622 49.1624 51.0645 48.0543C51.2637 46.9719 51.3697 45.867 51.3697 44.7494C51.3697 39.7422 49.3398 35.2132 46.0606 31.9309C42.7813 28.6516 38.2494 26.6218 33.2421 26.6218C28.2347 26.6218 23.7059 28.6517 20.4236 31.9309C17.1443 35.2102 15.1145 39.742 15.1145 44.7494C15.1145 49.7567 17.1444 54.2855 20.4236 57.5678C23.7029 60.8471 28.2347 62.877 33.2421 62.877C33.5279 62.877 33.8138 62.8705 34.1093 62.8545L32.7186 64.3447C32.3492 64.743 32.3717 65.3629 32.77 65.7323C33.1682 66.1016 33.7881 66.0791 34.1575 65.6809L37.3436 62.2667C37.7129 61.8685 37.6905 61.2486 37.2922 60.8792C37.2697 60.8568 37.2472 60.8343 37.2215 60.8118L37.218 60.8153Z"/>
</mask>
<path fill-rule="evenodd" clip-rule="evenodd" d="M21.4476 3.00646L17.0859 6.42708V20.7617H21.4476V3.00646ZM51.1924 17.4694H58.8718L64.0043 72.0314L2.47887 72.0346L7.61136 17.4726H15.1174V21.7443C15.1174 22.2871 15.5574 22.7303 16.1034 22.7303H22.4338C22.9766 22.7303 23.4199 22.2903 23.4199 21.7443V17.4726H42.8934V21.7443C42.8934 22.2871 43.3334 22.7303 43.8794 22.7303H50.2099C50.7527 22.7303 51.1959 22.2903 51.1959 21.7443V17.4726L51.1924 17.4694ZM49.2236 6.42362L44.8619 3.00301V20.7548H49.2236L49.2203 6.42675L49.2236 6.42362ZM42.8931 7.70514H23.4195V15.497H42.8931V7.70514ZM42.8931 1.96881H23.4195V5.73304H42.8931V1.96881ZM21.7627 0.263354C21.9394 0.0995507 22.1739 -1.25461e-05 22.434 -1.25461e-05H43.876C44.1361 -1.25461e-05 44.3706 0.0995507 44.5473 0.263354L50.7429 5.12287C51.0127 5.29951 51.1893 5.60142 51.1893 5.9483V15.4968H59.7618C60.3014 15.4968 60.7414 15.9336 60.7478 16.4732L66.0602 72.9238C66.1083 73.4634 65.7101 73.942 65.1705 73.9902C65.1416 73.9934 65.1127 73.9934 65.0806 73.9934V73.9966L1.40012 73.9998C0.857319 73.9998 0.414106 73.5598 0.414106 73.0138C0.414106 72.9528 0.420531 72.8917 0.430165 72.8339L5.73927 16.3923C5.78423 15.8817 6.21461 15.4995 6.71566 15.4995V15.4963H15.1147V5.94777C15.1147 5.60089 15.2913 5.29899 15.5611 5.12234L21.7568 0.26283L21.7627 0.263354ZM42.8709 55.6089C42.9223 55.3969 42.9672 55.1818 43.0154 54.9666C44.1332 49.7121 43.8089 45.6331 41.1526 41.9779C38.8111 38.6022 34.79 36.2031 29.0955 34.777C28.649 34.6646 28.1897 34.5586 27.7112 34.459C27.1812 34.3466 26.6578 34.6871 26.5453 35.217C26.5356 35.2652 26.5292 35.3134 26.526 35.3616C26.1856 38.0338 26.0731 40.4523 26.1888 42.6106C26.4136 46.7507 27.4831 49.9914 29.3909 52.3359C31.3309 54.7158 34.0963 56.1387 37.6937 56.6044C38.8115 56.7489 40.003 56.8003 41.2685 56.7586C42.3091 58.6375 43.0254 60.42 43.4237 62.1126C43.5457 62.6426 44.0757 62.9702 44.6056 62.8481C45.1356 62.7261 45.4632 62.1961 45.3411 61.6662C44.8882 59.7488 44.0657 57.7287 42.8709 55.6089ZM34.1315 47.3447C33.7621 46.9497 33.7814 46.3298 34.1764 45.9605C34.5715 45.5911 35.1914 45.6104 35.5607 46.0054C37.8893 48.4977 39.8196 50.8778 41.3484 53.1517C41.9715 49.0888 41.3645 45.7356 39.5338 43.0959C37.475 40.1282 33.836 37.9956 28.6138 36.6883L28.3473 36.6241C28.116 38.7728 28.0486 40.7352 28.1449 42.5146C28.3473 46.2242 29.2691 49.0859 30.9103 51.0994C32.5194 53.0746 34.8608 54.2631 37.9346 54.6581C38.6155 54.7448 39.3349 54.7962 40.0897 54.8058C38.5673 52.4548 36.5792 49.9656 34.1254 47.3416L34.1315 47.3447ZM37.218 60.8153L33.8777 57.6966C33.4795 57.3272 32.8596 57.3497 32.4902 57.7479C32.1209 58.1462 32.1433 58.7661 32.5416 59.1354L34.398 60.8666C34.0287 60.8923 33.6465 60.9052 33.245 60.9052C28.7838 60.9052 24.7432 59.0969 21.8202 56.1742C18.8975 53.2514 17.0892 49.2109 17.0892 44.7494C17.0892 40.2878 18.8975 36.2476 21.8202 33.3246C24.743 30.4018 28.7835 28.5936 33.245 28.5936C37.7063 28.5936 41.7468 30.4018 44.6698 33.3246C47.5926 36.2473 49.4008 40.2878 49.4008 44.7494C49.4008 45.7675 49.3109 46.7535 49.1342 47.701C48.9544 48.671 48.6846 49.6216 48.3345 50.537C48.1418 51.0445 48.3955 51.613 48.903 51.8057C49.4105 51.9984 49.979 51.7447 50.1717 51.2372C50.5603 50.2255 50.8622 49.1624 51.0645 48.0543C51.2637 46.9719 51.3697 45.867 51.3697 44.7494C51.3697 39.7422 49.3398 35.2132 46.0606 31.9309C42.7813 28.6516 38.2494 26.6218 33.2421 26.6218C28.2347 26.6218 23.7059 28.6517 20.4236 31.9309C17.1443 35.2102 15.1145 39.742 15.1145 44.7494C15.1145 49.7567 17.1444 54.2855 20.4236 57.5678C23.7029 60.8471 28.2347 62.877 33.2421 62.877C33.5279 62.877 33.8138 62.8705 34.1093 62.8545L32.7186 64.3447C32.3492 64.743 32.3717 65.3629 32.77 65.7323C33.1682 66.1016 33.7881 66.0791 34.1575 65.6809L37.3436 62.2667C37.7129 61.8685 37.6905 61.2486 37.2922 60.8792C37.2697 60.8568 37.2472 60.8343 37.2215 60.8118L37.218 60.8153Z" fill="#3D3E40" stroke="#FDFBF8" stroke-width="0.444001" mask="url(#path-2-inside-1_2331_887)"/>
</svg>
