<svg width="300" height="36" viewBox="0 0 300 36" fill="none" xmlns="http://www.w3.org/2000/svg">
<g clip-path="url(#clip0_4892_21513)">
<path fill-rule="evenodd" clip-rule="evenodd" d="M10.9102 29.4739C12.7832 29.7163 15.3277 29.7244 19.2582 29.7244C23.1886 29.7244 25.7331 29.7163 27.6061 29.4739C29.3686 29.2458 29.9085 28.8776 30.2014 28.5933C30.4943 28.309 30.8738 27.785 31.1088 26.0747C31.3585 24.257 31.367 21.7877 31.367 17.9734C31.367 14.159 31.3585 11.6897 31.1088 9.87201C30.8738 8.16167 30.4943 7.63766 30.2014 7.3534C29.9085 7.06914 29.3686 6.70083 27.6061 6.4728C25.7331 6.23045 23.1886 6.22226 19.2582 6.22226C15.3277 6.22226 12.7832 6.23045 10.9102 6.4728C9.14779 6.70083 8.60782 7.06914 8.3149 7.3534C8.02201 7.63766 7.64248 8.16167 7.40751 9.87201C7.15779 11.6897 7.14935 14.159 7.14935 17.9734C7.14935 21.7877 7.15779 24.257 7.40751 26.0747C7.64248 27.785 8.02201 28.309 8.3149 28.5933C8.60782 28.8776 9.14779 29.2458 10.9102 29.4739ZM5.45847 4.58134C3.10974 6.8607 3.10974 10.5649 3.10974 17.9734C3.10974 25.3818 3.10974 29.086 5.45847 31.3654C7.80721 33.6447 11.6242 33.6447 19.2582 33.6447C26.8922 33.6447 30.7091 33.6447 33.0579 31.3654C35.4066 29.086 35.4066 25.3818 35.4066 17.9734C35.4066 10.5649 35.4066 6.8607 33.0579 4.58134C30.7091 2.302 26.8922 2.302 19.2582 2.302C11.6242 2.302 7.80721 2.302 5.45847 4.58134ZM15.1325 24.6852C13.0348 23.9488 11.6238 22.8232 10.6388 21.7848L13.6106 19.1296C14.2569 19.8108 15.1451 20.5208 16.5068 20.9989C17.8485 21.4698 19.8062 21.5749 21.3337 21.2008C22.8376 20.8325 24.1708 19.953 24.8879 19.1623L27.9205 21.7521C26.6766 23.1239 24.6363 24.4352 22.3221 25.0019C20.0317 25.5629 17.2502 25.4288 15.1325 24.6852ZM59.8326 2.3036C62.0882 2.3036 64.1095 2.78684 65.8961 3.75336C67.683 4.71985 69.0744 6.07011 70.0701 7.80413C71.0953 9.53817 71.6079 11.5422 71.6079 13.8164C71.6079 16.0905 71.0953 18.1087 70.0701 19.8712C69.0744 21.6053 67.683 22.9555 65.8961 23.922C64.1095 24.8884 62.0882 25.3718 59.8326 25.3718C58.163 25.3718 56.6251 25.0591 55.2191 24.4337C53.8425 23.8083 52.6707 22.8987 51.7042 21.7047V33.6463H47.4862V2.3036H51.5285V6.09856C52.4659 4.84777 53.652 3.9097 55.0873 3.28432C56.5229 2.63051 58.1046 2.3036 59.8326 2.3036ZM59.4812 21.79C60.9751 21.79 62.3078 21.4632 63.4795 20.8093C64.6804 20.1271 65.6178 19.189 66.2917 17.9951C66.9947 16.7727 67.3461 15.3798 67.3461 13.8164C67.3461 12.2529 66.9947 10.8742 66.2917 9.6803C65.6178 8.45795 64.6804 7.51987 63.4795 6.86607C62.3078 6.21224 60.9751 5.88535 59.4812 5.88535C58.0165 5.88535 56.6838 6.22647 55.4829 6.90871C54.3112 7.5625 53.3738 8.48637 52.6707 9.6803C51.9972 10.8742 51.6603 12.2529 51.6603 13.8164C51.6603 15.3798 51.9972 16.7727 52.6707 17.9951C53.3446 19.189 54.282 20.1271 55.4829 20.8093C56.6838 21.4632 58.0165 21.79 59.4812 21.79ZM97.7522 2.3036V25.1159H93.7099V21.5341C92.7725 22.7849 91.5861 23.7372 90.1508 24.391C88.7155 25.0449 87.1338 25.3718 85.4055 25.3718C83.1502 25.3718 81.1289 24.8884 79.342 23.922C77.5554 22.9555 76.1493 21.6053 75.1241 19.8712C74.1283 18.1087 73.6302 16.0905 73.6302 13.8164C73.6302 11.5422 74.1283 9.53817 75.1241 7.80413C76.1493 6.07011 77.5554 4.71985 79.342 3.75335C81.1289 2.78684 83.1502 2.3036 85.4055 2.3036C87.0751 2.3036 88.613 2.61629 90.019 3.24168C91.4251 3.83863 92.5969 4.73407 93.5342 5.92798V2.3036H97.7522ZM85.7572 21.79C87.2216 21.79 88.5543 21.4631 89.7555 20.8093C90.9564 20.1271 91.8938 19.189 92.5674 17.9951C93.2412 16.7727 93.5779 15.3798 93.5779 13.8164C93.5779 12.2529 93.2412 10.8742 92.5674 9.6803C91.8938 8.45795 90.9564 7.51987 89.7555 6.86607C88.5543 6.21224 87.2216 5.88535 85.7572 5.88535C84.2633 5.88535 82.9159 6.21224 81.715 6.86607C80.5432 7.51987 79.6058 8.45795 78.9028 9.6803C78.2289 10.8742 77.8923 12.2529 77.8923 13.8164C77.8923 15.3798 78.2289 16.7727 78.9028 17.9951C79.6058 19.189 80.5432 20.1271 81.715 20.8093C82.9159 21.4631 84.2633 21.79 85.7572 21.79ZM123.701 22.0459V2.3036H119.483V13.0062C119.483 15.3941 118.839 17.2417 117.55 18.5494C116.261 19.857 114.504 20.5108 112.278 20.5108C110.256 20.5108 108.703 19.9565 107.62 18.8479C106.536 17.7108 105.994 16.0621 105.994 13.9016V2.3036H101.776V14.3706C101.776 17.6113 102.67 20.056 104.457 21.7047C106.243 23.3535 108.689 24.1779 111.794 24.1779C113.376 24.1779 114.841 23.8936 116.188 23.3251C117.536 22.7281 118.633 21.8895 119.483 20.8093V22.4723C119.483 25.0306 118.882 26.921 117.682 28.1434C116.48 29.3941 114.607 30.0195 112.058 30.0195C110.447 30.0195 108.909 29.7637 107.444 29.252C106.009 28.7403 104.778 28.0296 103.754 27.12L101.688 30.2753C102.889 31.3556 104.427 32.1799 106.302 32.7485C108.206 33.3455 110.198 33.6439 112.278 33.6439C116.086 33.6439 118.941 32.6916 120.845 30.787C122.749 28.9109 123.701 25.9972 123.701 22.0459ZM140.076 2.3036C142.331 2.3036 144.353 2.78684 146.14 3.75336C147.927 4.71985 149.318 6.07011 150.314 7.80413C151.339 9.53814 151.851 11.5422 151.851 13.8164C151.851 16.0904 151.339 18.1088 150.314 19.8713C149.318 21.6053 147.927 22.9555 146.14 23.922C144.353 24.8885 142.331 25.3718 140.076 25.3718C138.406 25.3718 136.869 25.0591 135.462 24.4337C134.086 23.8083 132.914 22.8986 131.947 21.7047V33.6463H127.73V2.3036H131.772V6.09856C132.709 4.84777 133.895 3.9097 135.331 3.28432C136.766 2.6305 138.348 2.3036 140.076 2.3036ZM139.725 21.79C141.218 21.79 142.551 21.4631 143.722 20.8093C144.924 20.1271 145.861 19.189 146.535 17.995C147.238 16.7727 147.59 15.3799 147.59 13.8164C147.59 12.2529 147.238 10.8742 146.535 9.6803C145.861 8.45795 144.924 7.51987 143.722 6.86607C142.551 6.21224 141.218 5.88535 139.725 5.88535C138.26 5.88535 136.927 6.22647 135.727 6.90871C134.554 7.5625 133.617 8.48637 132.915 9.6803C132.241 10.8742 131.904 12.2529 131.904 13.8164C131.904 15.3799 132.241 16.7727 132.915 17.995C133.588 19.189 134.525 20.1271 135.727 20.8093C136.927 21.4631 138.26 21.79 139.725 21.79ZM173.295 3.75336C171.509 2.78684 169.488 2.3036 167.232 2.3036C165.503 2.3036 163.921 2.6305 162.487 3.28432C161.051 3.9097 159.864 4.84777 158.927 6.09856V2.3036H154.885V33.6463H159.104V21.7047C160.07 22.8986 161.242 23.8083 162.618 24.4337C164.024 25.0591 165.562 25.3718 167.232 25.3718C169.488 25.3718 171.509 24.8885 173.295 23.922C175.081 22.9555 176.473 21.6053 177.469 19.8713C178.494 18.1088 179.007 16.0904 179.007 13.8164C179.007 11.5422 178.494 9.53814 177.469 7.80413C176.473 6.07011 175.081 4.71985 173.295 3.75336ZM170.879 20.8093C169.707 21.4631 168.374 21.79 166.881 21.79C165.416 21.79 164.083 21.4631 162.882 20.8093C161.68 20.1271 160.743 19.189 160.07 17.995C159.396 16.7727 159.059 15.3799 159.059 13.8164C159.059 12.2529 159.396 10.8742 160.07 9.6803C160.772 8.48637 161.71 7.5625 162.882 6.90871C164.083 6.22647 165.416 5.88535 166.881 5.88535C168.374 5.88535 169.707 6.21224 170.879 6.86607C172.08 7.51987 173.017 8.45795 173.69 9.6803C174.394 10.8742 174.745 12.2529 174.745 13.8164C174.745 15.3799 174.394 16.7727 173.69 17.995C173.017 19.189 172.08 20.1271 170.879 20.8093ZM203.954 2.3036V22.0458C203.954 25.9972 203.003 28.9109 201.099 30.787C199.194 32.6916 196.339 33.6439 192.531 33.6439C190.45 33.6439 188.459 33.3454 186.555 32.7484C184.68 32.1799 183.143 31.3555 181.942 30.2753L184.006 27.12C185.031 28.0296 186.262 28.7403 187.697 29.252C189.162 29.7637 190.7 30.0195 192.311 30.0195C194.859 30.0195 196.734 29.3941 197.935 28.1434C199.135 26.921 199.737 25.0307 199.737 22.4723V20.8093C198.887 21.8895 197.788 22.728 196.442 23.3251C195.094 23.8936 193.629 24.1779 192.048 24.1779C188.942 24.1779 186.496 23.3535 184.71 21.7047C182.923 20.0559 182.029 17.6113 182.029 14.3706V2.3036H186.247V13.9017C186.247 16.0621 186.789 17.7108 187.874 18.8478C188.957 19.9565 190.509 20.5108 192.531 20.5108C194.757 20.5108 196.514 19.857 197.803 18.5494C199.092 17.2417 199.737 15.394 199.737 13.0062V2.3036H203.954ZM213.133 2.33057H214.239L216.161 7.02877H216.232L218.155 2.33057H219.261V8.37447H218.394V4.00091H218.338L216.557 8.36562H215.837L214.056 3.99796H214V8.37447H213.133V2.33057ZM207.426 2.33055V3.11554H209.308V8.37444H210.216V3.11554H212.1V2.33055H207.426Z" fill="white"/>
</g>
<rect opacity="0.3" x="228.227" y="2.302" width="1" height="30.3525" fill="white"/>
<path fill-rule="evenodd" clip-rule="evenodd" d="M284.089 30.7367V19.5794H282.11V30.7367H284.089ZM282.131 17.2176C282.392 17.4649 282.715 17.5885 283.1 17.5885C283.484 17.5885 283.8 17.4649 284.048 17.2176C284.309 16.9565 284.439 16.6405 284.439 16.2696C284.439 15.9124 284.309 15.617 284.048 15.3834C283.8 15.1361 283.484 15.0125 283.1 15.0125C282.715 15.0125 282.392 15.143 282.131 15.404C281.884 15.6513 281.76 15.9536 281.76 16.3108C281.76 16.668 281.884 16.9703 282.131 17.2176ZM280.214 15.2935V30.7367H278.318V28.882C277.878 29.4865 277.321 29.9467 276.648 30.2627C275.975 30.5787 275.233 30.7367 274.422 30.7367C273.364 30.7367 272.416 30.5032 271.577 30.036C270.739 29.5689 270.08 28.9163 269.599 28.0782C269.131 27.2264 268.898 26.2509 268.898 25.1518C268.898 24.0527 269.131 23.0841 269.599 22.246C270.08 21.4079 270.739 20.7553 271.577 20.2882C272.416 19.8211 273.364 19.5875 274.422 19.5875C275.205 19.5875 275.927 19.7387 276.586 20.0409C277.246 20.3294 277.796 20.7622 278.235 21.3393V15.2935H280.214ZM274.587 29.0056C275.274 29.0056 275.899 28.8476 276.463 28.5316C277.026 28.2019 277.466 27.7485 277.782 27.1714C278.098 26.5807 278.256 25.9075 278.256 25.1518C278.256 24.3962 278.098 23.7298 277.782 23.1528C277.466 22.562 277.026 22.1086 276.463 21.7926C275.899 21.4766 275.274 21.3186 274.587 21.3186C273.886 21.3186 273.254 21.4766 272.691 21.7926C272.141 22.1086 271.701 22.562 271.371 23.1528C271.055 23.7298 270.897 24.3962 270.897 25.1518C270.897 25.9075 271.055 26.5807 271.371 27.1714C271.701 27.7485 272.141 28.2019 272.691 28.5316C273.254 28.8476 273.886 29.0056 274.587 29.0056ZM267.461 19.5794V30.7367H265.586V28.9644C265.187 29.5277 264.658 29.9673 263.999 30.2833C263.353 30.5856 262.645 30.7367 261.875 30.7367C260.419 30.7367 259.271 30.3383 258.433 29.5414C257.595 28.7308 257.176 27.5424 257.176 25.9762V19.5794H259.155V25.7495C259.155 26.8074 259.409 27.6111 259.917 28.1607C260.426 28.6965 261.154 28.9644 262.102 28.9644C263.147 28.9644 263.971 28.6484 264.576 28.0164C265.18 27.3844 265.483 26.4914 265.483 25.3373V19.5794H267.461ZM291.222 30.7367C290.136 30.7367 289.161 30.4963 288.295 30.0154C287.429 29.5346 286.749 28.8751 286.254 28.037C285.773 27.1852 285.533 26.2235 285.533 25.1518C285.533 24.0802 285.773 23.1253 286.254 22.2872C286.749 21.4354 287.429 20.776 288.295 20.3088C289.161 19.828 290.136 19.5875 291.222 19.5875C292.307 19.5875 293.276 19.828 294.128 20.3088C294.994 20.776 295.667 21.4354 296.148 22.2872C296.643 23.1253 296.89 24.0802 296.89 25.1518C296.89 26.2235 296.643 27.1852 296.148 28.037C295.667 28.8751 294.994 29.5346 294.128 30.0154C293.276 30.4963 292.307 30.7367 291.222 30.7367ZM291.222 29.0056C291.923 29.0056 292.548 28.8476 293.098 28.5316C293.661 28.2019 294.101 27.7485 294.417 27.1714C294.733 26.5807 294.891 25.9075 294.891 25.1518C294.891 24.3962 294.733 23.7298 294.417 23.1528C294.101 22.562 293.661 22.1086 293.098 21.7926C292.548 21.4766 291.923 21.3186 291.222 21.3186C290.521 21.3186 289.889 21.4766 289.326 21.7926C288.776 22.1086 288.336 22.562 288.006 23.1528C287.69 23.7298 287.532 24.3962 287.532 25.1518C287.532 25.9075 287.69 26.5807 288.006 27.1714C288.336 27.7485 288.776 28.2019 289.326 28.5316C289.889 28.8476 290.521 29.0056 291.222 29.0056ZM255.3 21.3639H252.475V27.5554C252.475 28.0799 252.574 28.4555 252.772 28.6823C252.985 28.8949 253.303 29.0083 253.728 29.0224C254.153 29.0224 254.677 29.0083 255.3 28.9799V30.6383C253.686 30.8509 252.503 30.7233 251.753 30.2556C251.002 29.7736 250.627 28.8736 250.627 27.5554V21.3639H248.523V19.578H250.627V15.2934H252.475V19.578H255.3V21.3639ZM240.581 29.9088C241.408 30.4606 242.38 30.7365 243.496 30.7365C244.296 30.7365 244.999 30.5986 245.605 30.3227C246.212 30.0468 246.688 29.6606 247.032 29.164C247.377 28.6674 247.549 28.1087 247.549 27.488C247.549 26.7155 247.294 26.0534 246.784 25.5016C246.288 24.9498 245.585 24.5429 244.675 24.2808L242.855 23.7429C242.635 23.6739 242.407 23.5911 242.173 23.4946C241.938 23.3842 241.739 23.2325 241.573 23.0394C241.408 22.8324 241.325 22.5704 241.325 22.2531C241.325 21.8255 241.49 21.4737 241.821 21.1978C242.152 20.9082 242.6 20.7633 243.165 20.7633C243.786 20.7633 244.344 20.9357 244.84 21.2806C245.337 21.6117 245.709 22.0669 245.957 22.6462L247.529 21.922C247.198 21.0254 246.639 20.3288 245.854 19.8322C245.082 19.3356 244.206 19.0873 243.227 19.0873C242.497 19.0873 241.835 19.2253 241.242 19.5012C240.663 19.777 240.201 20.1633 239.857 20.6599C239.526 21.1427 239.361 21.7151 239.361 22.3772C239.361 23.0945 239.588 23.7222 240.043 24.2601C240.512 24.7981 241.249 25.2119 242.256 25.5016L243.93 25.9775C244.151 26.0327 244.392 26.1224 244.654 26.2465C244.916 26.3569 245.137 26.5155 245.316 26.7224C245.509 26.9155 245.605 27.1776 245.605 27.5087C245.605 27.9777 245.406 28.357 245.006 28.6467C244.606 28.9364 244.103 29.0812 243.496 29.0812C242.821 29.0812 242.207 28.8881 241.656 28.5018C241.104 28.1156 240.67 27.5914 240.353 26.9293L238.823 27.6742C239.168 28.6122 239.753 29.3571 240.581 29.9088Z" fill="white"/>
<defs>
<clipPath id="clip0_4892_21513">
<rect width="216.151" height="31.3962" fill="white" transform="translate(3.10974 2.302)"/>
</clipPath>
</defs>
</svg>
