<svg width="240" height="80" viewBox="0 0 240 80" fill="none" xmlns="http://www.w3.org/2000/svg">
<rect x="0.5" y="0.5" width="239" height="79" fill="#111111"/>
<rect x="0.5" y="0.5" width="239" height="79" stroke="#414141"/>
<path d="M35.6096 38.9234L16.1792 60.0118C16.181 60.0156 16.181 60.0212 16.1828 60.0249C16.7796 62.3148 18.8236 64 21.2508 64C22.2217 64 23.1323 63.7313 23.9134 63.261L23.9755 63.2236L45.8459 50.3186L35.6096 38.9234Z" fill="#EA4335"/>
<path d="M55.2662 35.3324L55.248 35.3193L45.8056 29.7225L35.1678 39.4026L45.8439 50.3164L55.2352 44.7755C56.8813 43.8648 58 42.09 58 40.0446C58 38.0104 56.8977 36.245 55.2662 35.3324Z" fill="#FBBC04"/>
<path d="M16.1788 19.9865C16.062 20.4269 16 20.8898 16 21.3675V58.6326C16 59.1103 16.062 59.5732 16.1807 60.0117L36.2772 39.4626L16.1788 19.9865Z" fill="#4285F4"/>
<path d="M35.7532 40L45.8088 29.7189L23.9639 16.7672C23.17 16.2801 22.243 16.0002 21.252 16.0002C18.8248 16.0002 16.7772 17.6891 16.1804 19.9809C16.1804 19.9827 16.1786 19.9846 16.1786 19.9865L35.7532 40Z" fill="#34A853"/>
<path d="M87.22 22.42C87.22 24.42 86.6267 26.0133 85.44 27.2C84.1067 28.6133 82.3533 29.32 80.18 29.32C78.1 29.32 76.34 28.6 74.9 27.16C73.46 25.72 72.74 23.9467 72.74 21.84C72.74 19.7333 73.46 17.96 74.9 16.52C76.34 15.08 78.1 14.36 80.18 14.36C81.2333 14.36 82.2267 14.5467 83.16 14.92C84.0933 15.2933 84.86 15.82 85.46 16.5L84.14 17.82C83.7 17.2867 83.1267 16.8733 82.42 16.58C81.7267 16.2733 80.98 16.12 80.18 16.12C78.62 16.12 77.3 16.66 76.22 17.74C75.1533 18.8333 74.62 20.2 74.62 21.84C74.62 23.48 75.1533 24.8467 76.22 25.94C77.3 27.02 78.62 27.56 80.18 27.56C81.6067 27.56 82.7933 27.16 83.74 26.36C84.6867 25.56 85.2333 24.46 85.38 23.06H80.18V21.34H87.12C87.1867 21.7133 87.22 22.0733 87.22 22.42ZM97.8156 14.68V16.44H91.2956V20.98H97.1756V22.7H91.2956V27.24H97.8156V29H89.4556V14.68H97.8156ZM105.175 16.44V29H103.335V16.44H99.3355V14.68H109.175V16.44H105.175ZM117.331 29H115.491V14.68H117.331V29ZM125.097 16.44V29H123.257V16.44H119.257V14.68H129.097V16.44H125.097ZM149.042 21.84C149.042 23.96 148.335 25.7333 146.922 27.16C145.495 28.6 143.749 29.32 141.682 29.32C139.602 29.32 137.855 28.6 136.442 27.16C135.029 25.7333 134.322 23.96 134.322 21.84C134.322 19.72 135.029 17.9467 136.442 16.52C137.855 15.08 139.602 14.36 141.682 14.36C143.762 14.36 145.509 15.0867 146.922 16.54C148.335 17.9667 149.042 19.7333 149.042 21.84ZM136.202 21.84C136.202 23.4933 136.722 24.86 137.762 25.94C138.815 27.02 140.122 27.56 141.682 27.56C143.242 27.56 144.542 27.02 145.582 25.94C146.635 24.8733 147.162 23.5067 147.162 21.84C147.162 20.1733 146.635 18.8067 145.582 17.74C144.542 16.66 143.242 16.12 141.682 16.12C140.122 16.12 138.815 16.66 137.762 17.74C136.722 18.82 136.202 20.1867 136.202 21.84ZM153.053 29H151.213V14.68H153.453L160.413 25.82H160.493L160.413 23.06V14.68H162.253V29H160.333L153.053 17.32H152.973L153.053 20.08V29Z" fill="white"/>
<path d="M187.036 62.8193H190.294V40.7963H187.036V62.8193ZM216.378 48.7292L212.643 58.2776H212.532L208.656 48.7292H205.147L210.959 62.0741L207.647 69.4979H211.042L220 48.7292H216.378ZM197.904 60.3177C196.835 60.3177 195.348 59.7804 195.348 58.4468C195.348 56.7485 197.2 56.0967 198.801 56.0967C200.233 56.0967 200.908 56.4085 201.778 56.833C201.524 58.8731 199.784 60.3177 197.904 60.3177ZM198.297 48.2483C195.938 48.2483 193.494 49.2965 192.485 51.6202L195.376 52.8375C195.994 51.6202 197.144 51.222 198.352 51.222C200.037 51.222 201.75 52.2421 201.778 54.0566V54.2821C201.188 53.9421 199.925 53.433 198.38 53.433C195.264 53.433 192.09 55.1612 192.09 58.3904C192.09 61.3377 194.646 63.2368 197.509 63.2368C199.7 63.2368 200.908 62.245 201.666 61.0823H201.778V62.7823H204.922V54.3385C204.922 50.4293 202.031 48.2483 198.297 48.2483M178.164 51.4105H173.531V43.8616H178.164C180.6 43.8616 181.982 45.8964 181.982 47.6352C181.982 49.3423 180.6 51.4105 178.164 51.4105ZM178.08 40.7963H170.275V62.8193H173.531V54.4759H178.08C181.691 54.4759 185.24 51.8369 185.24 47.6352C185.24 43.4336 181.691 40.7963 178.08 40.7963M135.517 60.3212C133.266 60.3212 131.383 58.4203 131.383 55.8095C131.383 53.1705 133.266 51.2396 135.517 51.2396C137.739 51.2396 139.481 53.1705 139.481 55.8095C139.481 58.4203 137.739 60.3212 135.517 60.3212ZM139.258 49.9624H139.144C138.413 49.0833 137.008 48.2888 135.236 48.2888C131.522 48.2888 128.12 51.5797 128.12 55.8095C128.12 60.0094 131.522 63.2738 135.236 63.2738C137.008 63.2738 138.413 62.4793 139.144 61.5703H139.258V62.6502C139.258 65.5165 137.739 67.0491 135.291 67.0491C133.294 67.0491 132.056 65.601 131.55 64.3802L128.71 65.5728C129.525 67.56 131.692 70 135.291 70C139.116 70 142.351 67.7292 142.351 62.1957V48.7416H139.258V49.9624ZM144.602 62.8193H147.864V40.7945H144.602V62.8193ZM152.672 55.5541C152.589 52.6596 154.895 51.1833 156.553 51.1833C157.849 51.1833 158.945 51.8351 159.31 52.7723L152.672 55.5541ZM162.798 53.056C162.18 51.3823 160.294 48.2888 156.442 48.2888C152.617 48.2888 149.439 51.3242 149.439 55.7813C149.439 59.9812 152.589 63.2738 156.806 63.2738C160.211 63.2738 162.18 61.1739 162.995 59.953L160.464 58.2495C159.621 59.4985 158.467 60.3212 156.806 60.3212C155.148 60.3212 153.966 59.5549 153.207 58.0521L163.135 53.9069L162.798 53.056ZM83.7002 50.5878V53.7659H91.2367C91.0115 55.5541 90.4214 56.8595 89.5224 57.7667C88.4243 58.8749 86.7082 60.0957 83.7002 60.0957C79.0582 60.0957 75.4305 56.3204 75.4305 51.6378C75.4305 46.9534 79.0582 43.1799 83.7002 43.1799C86.2036 43.1799 88.0315 44.1735 89.381 45.4507L91.6033 43.2081C89.7179 41.3917 87.2162 40 83.7002 40C77.3438 40 72 45.2234 72 51.6378C72 58.0521 77.3438 63.2738 83.7002 63.2738C87.1307 63.2738 89.7179 62.1375 91.743 60.0094C93.8257 57.9094 94.4716 54.9586 94.4716 52.5733C94.4716 51.8351 94.4158 51.1551 94.3023 50.5878H83.7002ZM103.042 60.3212C100.791 60.3212 98.85 58.4485 98.85 55.7813C98.85 53.0841 100.791 51.2396 103.042 51.2396C105.29 51.2396 107.232 53.0841 107.232 55.7813C107.232 58.4485 105.29 60.3212 103.042 60.3212ZM103.042 48.2888C98.9338 48.2888 95.5872 51.4387 95.5872 55.7813C95.5872 60.0957 98.9338 63.2738 103.042 63.2738C107.148 63.2738 110.494 60.0957 110.494 55.7813C110.494 51.4387 107.148 48.2888 103.042 48.2888ZM119.3 60.3212C117.05 60.3212 115.108 58.4485 115.108 55.7813C115.108 53.0841 117.05 51.2396 119.3 51.2396C121.55 51.2396 123.49 53.0841 123.49 55.7813C123.49 58.4485 121.55 60.3212 119.3 60.3212ZM119.3 48.2888C115.194 48.2888 111.847 51.4387 111.847 55.7813C111.847 60.0957 115.194 63.2738 119.3 63.2738C123.406 63.2738 126.753 60.0957 126.753 55.7813C126.753 51.4387 123.406 48.2888 119.3 48.2888Z" fill="white"/>
</svg>
