<svg width="68" height="16" viewBox="0 0 68 16" fill="none" xmlns="http://www.w3.org/2000/svg">
<path d="M40.4502 6.31307C41.4951 6.31307 42.4846 6.94213 42.6934 8.30132H38.04C38.2347 7.10862 39.1407 6.31307 40.4502 6.31307ZM42.5447 10.3122C42.1893 10.8574 41.5024 11.2768 40.5619 11.2768C39.266 11.2768 38.2765 10.5777 38.04 9.34347H43.8781C43.9062 9.16658 43.9205 8.98782 43.9207 8.80877C43.9207 6.88929 42.557 5.18872 40.4511 5.18872C38.2778 5.18872 36.8008 6.76557 36.8008 8.79535C36.8008 10.8503 38.2923 12.402 40.5346 12.402C41.9281 12.402 42.987 11.7847 43.5998 10.8503L42.5447 10.3122Z" fill="white"/>
<path d="M36.2393 2.21313H35.0273V12.2232H36.2393V2.21313Z" fill="white"/>
<path d="M50.6687 8.01328V12.2225H49.4563V8.08164C49.4563 6.95729 48.8018 6.32655 47.7288 6.32655C46.614 6.32655 45.7085 6.97113 45.7085 8.58908V12.2225H44.4961V5.36744H45.7085V6.35465C46.2241 5.54568 46.9903 5.18921 47.967 5.18921C49.597 5.18921 50.67 6.25862 50.67 8.01412" fill="white"/>
<path d="M57.3538 8.79481C57.3538 7.39619 56.2808 6.34021 54.8737 6.34021C53.4803 6.34021 52.4077 7.39619 52.4077 8.79481C52.4077 10.1934 53.4803 11.2494 54.8737 11.2494C56.28 11.2494 57.3538 10.1934 57.3538 8.79481ZM58.5658 2.21313V12.2232H57.3538V11.0435C56.7965 11.8822 55.905 12.4014 54.7203 12.4014C52.7835 12.4014 51.1953 10.8242 51.1953 8.79481C51.1953 6.76545 52.7835 5.18818 54.7203 5.18818C55.9046 5.18818 56.7965 5.70905 57.3538 6.5457V2.21313H58.5658Z" fill="white"/>
<path d="M60.7588 2.21313H59.5469V12.2232H60.7588V2.21313Z" fill="white"/>
<path d="M32.8617 8.79486C32.8617 7.39624 31.7891 6.34026 30.3815 6.34026C28.9885 6.34026 27.9155 7.39624 27.9155 8.79486C27.9155 10.1935 28.9885 11.2495 30.3815 11.2495C31.7878 11.2495 32.8617 10.1935 32.8617 8.79486ZM34.074 5.36772V12.2228H32.8617V11.0435C32.3043 11.8823 31.4128 12.4015 30.2286 12.4015C28.2918 12.4015 26.7031 10.8242 26.7031 8.79486C26.7031 6.7655 28.2918 5.18823 30.2286 5.18823C31.4128 5.18823 32.3043 5.7091 32.8617 6.54575V5.36772H34.074Z" fill="white"/>
<path d="M24.9055 10.9037C24.285 11.129 23.6152 11.1898 22.9633 11.0801C22.3114 10.9703 21.7003 10.6938 21.1912 10.2783C20.6821 9.86279 20.2929 9.32286 20.0627 8.71265C19.8326 8.10244 19.7694 7.44341 19.8797 6.80161C19.9899 6.15982 20.2697 5.55783 20.6909 5.05601C21.1121 4.55418 21.66 4.17016 22.2796 3.94243C22.8992 3.71471 23.5688 3.6513 24.2211 3.75855C24.8735 3.8658 25.4857 4.13994 25.9964 4.5535C26.2094 4.72643 26.4021 4.92223 26.5709 5.13727L27.6196 4.38239C27.0086 3.59635 26.1743 3.00652 25.2223 2.68766C24.2703 2.3688 23.2436 2.33526 22.2722 2.5913C21.3009 2.84734 20.4286 3.38143 19.766 4.12587C19.1035 4.87032 18.6804 5.79159 18.5504 6.77293C18.4204 7.75428 18.5895 8.7515 19.036 9.63821C19.4826 10.5249 20.1866 11.2612 21.0588 11.7537C21.931 12.2462 22.9322 12.4728 23.9354 12.4047C24.9387 12.3366 25.8987 11.9769 26.694 11.3713L25.996 10.2851C25.6699 10.5494 25.3014 10.7585 24.9055 10.9037Z" fill="white"/>
<path d="M66.6094 5.36792V9.25888C66.6094 10.517 65.8658 11.3138 64.7305 11.3138C63.5953 11.3138 62.7733 10.517 62.7733 9.25888V5.36792H61.5469V9.1423C61.5469 11.1201 62.7993 12.4042 64.7305 12.4042C66.401 12.4042 66.6618 11.3641 66.6618 11.3381V12.738C66.6618 14.1249 66.0486 14.9083 64.7697 14.9083C64.3129 14.9105 63.8709 14.7492 63.5259 14.4545C63.181 14.1598 62.9567 13.7517 62.8947 13.3063L61.7983 13.6837C61.9552 14.3436 62.3346 14.9317 62.8745 15.3523C63.4145 15.7729 64.0833 16.0012 64.7719 15.9999C66.7551 15.9999 67.8401 14.7154 67.8401 12.738V5.36792H66.6094Z" fill="white"/>
<path d="M10.3368 9.36188C9.87108 9.76868 9.2894 10.2749 8.23471 10.2749H7.60403C6.84082 10.2749 6.14664 10.0018 5.64977 9.50699C5.1644 9.02345 4.89721 8.36167 4.89721 7.64328V6.79405C4.89721 6.07566 5.1644 5.41388 5.64977 4.93035C6.14664 4.43548 6.84082 4.16289 7.60403 4.16289H8.23471C9.29068 4.16289 9.87108 4.66866 10.3368 5.07545C10.8205 5.49482 11.2377 5.86136 12.3503 5.86136C12.52 5.86132 12.6895 5.848 12.857 5.82152L12.8532 5.81187C12.7865 5.649 12.7084 5.49092 12.6192 5.33882L11.8756 4.07105C11.5403 3.49953 11.058 3.02496 10.4772 2.69501C9.89647 2.36507 9.23769 2.19138 8.5671 2.19141H7.07945C6.40886 2.19138 5.75008 2.36507 5.16931 2.69501C4.58855 3.02496 4.10626 3.49953 3.77093 4.07105L3.02732 5.33882C2.6921 5.91039 2.51562 6.55872 2.51562 7.21867C2.51562 7.87861 2.6921 8.52694 3.02732 9.09852L3.77093 10.3663C4.10626 10.9378 4.58855 11.4124 5.16931 11.7423C5.75008 12.0723 6.40886 12.246 7.07945 12.2459H8.5671C9.23769 12.246 9.89647 12.0723 10.4772 11.7423C11.058 11.4124 11.5403 10.9378 11.8756 10.3663L12.6192 9.10061C12.7084 8.9485 12.7865 8.79043 12.8532 8.62756L12.857 8.61833C12.6895 8.59095 12.5201 8.57693 12.3503 8.57639C11.2377 8.57639 10.8205 8.94083 10.3368 9.3623" fill="white"/>
<path d="M8.23523 4.93262H7.60455C6.4429 4.93262 5.67969 5.74914 5.67969 6.79422V7.64346C5.67969 8.68854 6.4429 9.50506 7.60455 9.50506H8.23523C9.92785 9.50506 9.79489 7.8066 12.3509 7.8066C12.593 7.80633 12.8347 7.82823 13.0727 7.87202C13.1503 7.43991 13.1503 6.99777 13.0727 6.56566C12.8347 6.60924 12.593 6.63114 12.3509 6.63109C9.79404 6.63109 9.92785 4.93262 8.23523 4.93262Z" fill="white"/>
<path d="M14.5432 8.49257C14.108 8.17884 13.606 7.96647 13.0752 7.87148C13.0752 7.87609 13.0752 7.87987 13.0752 7.88406C13.0295 8.13446 12.9581 8.37965 12.8621 8.61587C13.3006 8.6827 13.7166 8.85133 14.0758 9.1078C14.0758 9.11115 14.0736 9.11535 14.0724 9.11912C13.6101 10.592 12.6264 11.853 11.2999 12.6728C9.97334 13.4926 8.392 13.817 6.84311 13.587C5.29423 13.357 3.88056 12.5878 2.8589 11.4193C1.83724 10.2507 1.27538 8.76029 1.27538 7.21872C1.27538 5.67716 1.83724 4.18673 2.8589 3.01818C3.88056 1.84963 5.29423 1.08049 6.84311 0.850472C8.392 0.620457 9.97334 0.944828 11.2999 1.76466C12.6264 2.58449 13.6101 3.8454 14.0724 5.31832C14.0724 5.3221 14.0745 5.32629 14.0758 5.32965C13.7167 5.58615 13.3006 5.75465 12.8621 5.82115C12.958 6.0577 13.0294 6.30316 13.0752 6.5538C13.075 6.55771 13.075 6.56163 13.0752 6.56555C13.606 6.47071 14.108 6.25848 14.5432 5.94487C14.9617 5.63998 14.8807 5.29568 14.8172 5.09186C14.2999 3.44041 13.1976 2.02642 11.7109 1.10684C10.2241 0.187261 8.45141 -0.176885 6.71498 0.0805744C4.97855 0.338034 3.39359 1.20001 2.24811 2.50988C1.10263 3.81974 0.472656 5.49056 0.472656 7.21872C0.472656 8.94689 1.10263 10.6177 2.24811 11.9276C3.39359 13.2374 4.97855 14.0994 6.71498 14.3569C8.45141 14.6143 10.2241 14.2502 11.7109 13.3306C13.1976 12.411 14.2999 10.997 14.8172 9.34558C14.8807 9.14177 14.9617 8.79746 14.5432 8.49257Z" fill="white"/>
<path d="M12.8582 5.8215C12.6908 5.84888 12.5213 5.86291 12.3516 5.86344C11.2389 5.86344 10.8217 5.499 10.3385 5.07753C9.87231 4.67074 9.29191 4.16455 8.23594 4.16455H7.60526C6.84162 4.16455 6.14787 4.43756 5.651 4.93243C5.16563 5.41597 4.89844 6.07774 4.89844 6.79613V7.64536C4.89844 8.36375 5.16563 9.02553 5.651 9.50907C6.14787 10.0039 6.84162 10.2765 7.60526 10.2765H8.23594C9.29191 10.2765 9.87231 9.77076 10.3385 9.36396C10.8217 8.94459 11.2389 8.57806 12.3516 8.57806C12.5213 8.5781 12.6907 8.59142 12.8582 8.6179C12.9544 8.38174 13.0258 8.13653 13.0713 7.88609C13.0716 7.8819 13.0716 7.8777 13.0713 7.8735C12.8332 7.83006 12.5916 7.8083 12.3494 7.8085C9.79262 7.8085 9.92643 9.50739 8.23381 9.50739H7.60313C6.44148 9.50739 5.67827 8.69045 5.67827 7.64536V6.79445C5.67827 5.74937 6.44148 4.93285 7.60313 4.93285H8.23381C9.92643 4.93285 9.79347 6.6309 12.3494 6.6309C12.5916 6.6313 12.8333 6.60954 13.0713 6.56589C13.0713 6.56212 13.0713 6.55834 13.0713 6.55415C13.0255 6.30351 12.9541 6.05805 12.8582 5.8215Z" fill="#414141"/>
<path d="M12.8582 5.8215C12.6908 5.84888 12.5213 5.86291 12.3516 5.86344C11.2389 5.86344 10.8217 5.499 10.3385 5.07753C9.87231 4.67074 9.29191 4.16455 8.23594 4.16455H7.60526C6.84162 4.16455 6.14787 4.43756 5.651 4.93243C5.16563 5.41597 4.89844 6.07774 4.89844 6.79613V7.64536C4.89844 8.36375 5.16563 9.02553 5.651 9.50907C6.14787 10.0039 6.84162 10.2765 7.60526 10.2765H8.23594C9.29191 10.2765 9.87231 9.77076 10.3385 9.36396C10.8217 8.94459 11.2389 8.57806 12.3516 8.57806C12.5213 8.5781 12.6907 8.59142 12.8582 8.6179C12.9544 8.38174 13.0258 8.13653 13.0713 7.88609C13.0716 7.8819 13.0716 7.8777 13.0713 7.8735C12.8332 7.83006 12.5916 7.8083 12.3494 7.8085C9.79262 7.8085 9.92643 9.50739 8.23381 9.50739H7.60313C6.44148 9.50739 5.67827 8.69045 5.67827 7.64536V6.79445C5.67827 5.74937 6.44148 4.93285 7.60313 4.93285H8.23381C9.92643 4.93285 9.79347 6.6309 12.3494 6.6309C12.5916 6.6313 12.8333 6.60954 13.0713 6.56589C13.0713 6.56212 13.0713 6.55834 13.0713 6.55415C13.0255 6.30351 12.9541 6.05805 12.8582 5.8215Z" fill="#414141"/>
</svg>
