<svg width="132" height="39" viewBox="0 0 132 39" fill="none" xmlns="http://www.w3.org/2000/svg">
<path d="M0.367188 30.5679V8.40056C0.367188 8.40056 40.2657 15.5981 66.0774 15.5258C91.5904 15.4543 130.996 8.20264 130.996 8.20264V30.5679C130.996 30.5679 130.996 37.2972 66.0774 37.891C1.15888 38.4848 0.367188 30.5679 0.367188 30.5679Z" fill="#282827" stroke="#757575" stroke-width="0.395845"/>
<ellipse cx="65.6816" cy="8.20301" rx="65.3144" ry="7.32313" fill="#00FF94" stroke="#757575" stroke-width="0.395845"/>
<path fill-rule="evenodd" clip-rule="evenodd" d="M65.6796 30.567C64.5235 30.567 63.775 30.5646 63.2241 30.4911C62.7057 30.422 62.5469 30.3104 62.4607 30.2242C62.3746 30.138 62.263 29.9792 62.1938 29.4608C62.1204 28.9099 62.1179 28.1614 62.1179 27.0053C62.1179 25.8492 62.1204 25.1008 62.1938 24.5498C62.263 24.0314 62.3746 23.8726 62.4607 23.7864C62.5469 23.7003 62.7057 23.5886 63.2241 23.5195C63.775 23.4461 64.5235 23.4436 65.6796 23.4436C66.8357 23.4436 67.5841 23.4461 68.1351 23.5195C68.6535 23.5886 68.8123 23.7003 68.8984 23.7864C68.9846 23.8726 69.0962 24.0314 69.1653 24.5498C69.2388 25.1008 69.2413 25.8492 69.2413 27.0053C69.2413 28.1614 69.2388 28.9099 69.1653 29.4608C69.0962 29.9792 68.9846 30.138 68.8984 30.2242C68.8123 30.3104 68.6535 30.422 68.1351 30.4911C67.5841 30.5646 66.8357 30.567 65.6796 30.567ZM60.9297 27.0053C60.9297 24.7598 60.9297 23.6371 61.6205 22.9462C62.3114 22.2554 63.4341 22.2554 65.6796 22.2554C67.9251 22.2554 69.0478 22.2554 69.7386 22.9462C70.4295 23.6371 70.4295 24.7598 70.4295 27.0053C70.4295 29.2508 70.4295 30.3735 69.7386 31.0644C69.0478 31.7553 67.9251 31.7553 65.6796 31.7553C63.4341 31.7553 62.3114 31.7553 61.6205 31.0644C60.9297 30.3735 60.9297 29.2508 60.9297 27.0053ZM63.1434 28.1606C63.4331 28.4753 63.8482 28.8165 64.4652 29.0397C65.0881 29.2651 65.9062 29.3057 66.5799 29.1357C67.2606 28.9639 67.8608 28.5665 68.2266 28.1507L67.3346 27.3657C67.1237 27.6054 66.7315 27.8719 66.2892 27.9836C65.8399 28.097 65.2641 28.0651 64.8694 27.9224C64.4689 27.7775 64.2076 27.5623 64.0175 27.3558L63.1434 28.1606Z" fill="#757575"/>
</svg>
